%FSLAX45Y45*%
G04 Gerber Fmt 4.5, Leading zero omitted, Abs format (unit mm)*
G04 Created by KiCad (PCBNEW (6.0.6-0)) date 2023-01-17 17:26:09*
%MOMM*%
%LPD*%
G01*
G04 APERTURE LIST*
%TA.AperFunction,Profile*%
%ADD10C,0.200000*%
%TD*%
%ADD11C,0.200000*%
%ADD12C,0.220000*%
G04 APERTURE END LIST*
D10*
X13500000Y-8500000D02*
X10000000Y-8500000D01*
X10000000Y-12000000D02*
X13500000Y-12000000D01*
X10000000Y-8500000D02*
X10000000Y-12000000D01*
X13500000Y-12000000D02*
X13500000Y-8500000D01*
D11*
D12*
X10140000Y-8640000D02*
X10360000Y-8860000D01*
X10360000Y-8640000D02*
X10140000Y-8860000D01*
X10140000Y-11640000D02*
X10360000Y-11860000D01*
X10360000Y-11640000D02*
X10140000Y-11860000D01*
X13140000Y-8640000D02*
X13360000Y-8860000D01*
X13360000Y-8640000D02*
X13140000Y-8860000D01*
X13140000Y-11640000D02*
X13360000Y-11860000D01*
X13360000Y-11640000D02*
X13140000Y-11860000D01*
D11*
X10247619Y-12320476D02*
X10247619Y-12120476D01*
X10295238Y-12120476D01*
X10323810Y-12130000D01*
X10342857Y-12149048D01*
X10352381Y-12168095D01*
X10361905Y-12206190D01*
X10361905Y-12234762D01*
X10352381Y-12272857D01*
X10342857Y-12291905D01*
X10323810Y-12310952D01*
X10295238Y-12320476D01*
X10247619Y-12320476D01*
X10447619Y-12320476D02*
X10447619Y-12187143D01*
X10447619Y-12225238D02*
X10457143Y-12206190D01*
X10466667Y-12196667D01*
X10485714Y-12187143D01*
X10504762Y-12187143D01*
X10571429Y-12320476D02*
X10571429Y-12187143D01*
X10571429Y-12120476D02*
X10561905Y-12130000D01*
X10571429Y-12139524D01*
X10580952Y-12130000D01*
X10571429Y-12120476D01*
X10571429Y-12139524D01*
X10695238Y-12320476D02*
X10676190Y-12310952D01*
X10666667Y-12291905D01*
X10666667Y-12120476D01*
X10800000Y-12320476D02*
X10780952Y-12310952D01*
X10771429Y-12291905D01*
X10771429Y-12120476D01*
X11028571Y-12320476D02*
X11028571Y-12120476D01*
X11095238Y-12263333D01*
X11161905Y-12120476D01*
X11161905Y-12320476D01*
X11342857Y-12320476D02*
X11342857Y-12215714D01*
X11333333Y-12196667D01*
X11314286Y-12187143D01*
X11276190Y-12187143D01*
X11257143Y-12196667D01*
X11342857Y-12310952D02*
X11323809Y-12320476D01*
X11276190Y-12320476D01*
X11257143Y-12310952D01*
X11247619Y-12291905D01*
X11247619Y-12272857D01*
X11257143Y-12253809D01*
X11276190Y-12244286D01*
X11323809Y-12244286D01*
X11342857Y-12234762D01*
X11438095Y-12187143D02*
X11438095Y-12387143D01*
X11438095Y-12196667D02*
X11457143Y-12187143D01*
X11495238Y-12187143D01*
X11514286Y-12196667D01*
X11523809Y-12206190D01*
X11533333Y-12225238D01*
X11533333Y-12282381D01*
X11523809Y-12301428D01*
X11514286Y-12310952D01*
X11495238Y-12320476D01*
X11457143Y-12320476D01*
X11438095Y-12310952D01*
X11619048Y-12301428D02*
X11628571Y-12310952D01*
X11619048Y-12320476D01*
X11609524Y-12310952D01*
X11619048Y-12301428D01*
X11619048Y-12320476D01*
X11619048Y-12196667D02*
X11628571Y-12206190D01*
X11619048Y-12215714D01*
X11609524Y-12206190D01*
X11619048Y-12196667D01*
X11619048Y-12215714D01*
X9790000Y-12550000D02*
X9990000Y-12750000D01*
X9990000Y-12550000D02*
X9790000Y-12750000D01*
X10238095Y-12559524D02*
X10247619Y-12550000D01*
X10266667Y-12540476D01*
X10314286Y-12540476D01*
X10333333Y-12550000D01*
X10342857Y-12559524D01*
X10352381Y-12578571D01*
X10352381Y-12597619D01*
X10342857Y-12626190D01*
X10228571Y-12740476D01*
X10352381Y-12740476D01*
X10438095Y-12721428D02*
X10447619Y-12730952D01*
X10438095Y-12740476D01*
X10428571Y-12730952D01*
X10438095Y-12721428D01*
X10438095Y-12740476D01*
X10523810Y-12559524D02*
X10533333Y-12550000D01*
X10552381Y-12540476D01*
X10600000Y-12540476D01*
X10619048Y-12550000D01*
X10628571Y-12559524D01*
X10638095Y-12578571D01*
X10638095Y-12597619D01*
X10628571Y-12626190D01*
X10514286Y-12740476D01*
X10638095Y-12740476D01*
X10761905Y-12540476D02*
X10780952Y-12540476D01*
X10800000Y-12550000D01*
X10809524Y-12559524D01*
X10819048Y-12578571D01*
X10828571Y-12616667D01*
X10828571Y-12664286D01*
X10819048Y-12702381D01*
X10809524Y-12721428D01*
X10800000Y-12730952D01*
X10780952Y-12740476D01*
X10761905Y-12740476D01*
X10742857Y-12730952D01*
X10733333Y-12721428D01*
X10723810Y-12702381D01*
X10714286Y-12664286D01*
X10714286Y-12616667D01*
X10723810Y-12578571D01*
X10733333Y-12559524D01*
X10742857Y-12550000D01*
X10761905Y-12540476D01*
X10952381Y-12540476D02*
X10971429Y-12540476D01*
X10990476Y-12550000D01*
X11000000Y-12559524D01*
X11009524Y-12578571D01*
X11019048Y-12616667D01*
X11019048Y-12664286D01*
X11009524Y-12702381D01*
X11000000Y-12721428D01*
X10990476Y-12730952D01*
X10971429Y-12740476D01*
X10952381Y-12740476D01*
X10933333Y-12730952D01*
X10923810Y-12721428D01*
X10914286Y-12702381D01*
X10904762Y-12664286D01*
X10904762Y-12616667D01*
X10914286Y-12578571D01*
X10923810Y-12559524D01*
X10933333Y-12550000D01*
X10952381Y-12540476D01*
X11104762Y-12740476D02*
X11104762Y-12607143D01*
X11104762Y-12626190D02*
X11114286Y-12616667D01*
X11133333Y-12607143D01*
X11161905Y-12607143D01*
X11180952Y-12616667D01*
X11190476Y-12635714D01*
X11190476Y-12740476D01*
X11190476Y-12635714D02*
X11200000Y-12616667D01*
X11219048Y-12607143D01*
X11247619Y-12607143D01*
X11266667Y-12616667D01*
X11276190Y-12635714D01*
X11276190Y-12740476D01*
X11371428Y-12740476D02*
X11371428Y-12607143D01*
X11371428Y-12626190D02*
X11380952Y-12616667D01*
X11400000Y-12607143D01*
X11428571Y-12607143D01*
X11447619Y-12616667D01*
X11457143Y-12635714D01*
X11457143Y-12740476D01*
X11457143Y-12635714D02*
X11466667Y-12616667D01*
X11485714Y-12607143D01*
X11514286Y-12607143D01*
X11533333Y-12616667D01*
X11542857Y-12635714D01*
X11542857Y-12740476D01*
X11933333Y-12530952D02*
X11761905Y-12788095D01*
X12190476Y-12540476D02*
X12209524Y-12540476D01*
X12228571Y-12550000D01*
X12238095Y-12559524D01*
X12247619Y-12578571D01*
X12257143Y-12616667D01*
X12257143Y-12664286D01*
X12247619Y-12702381D01*
X12238095Y-12721428D01*
X12228571Y-12730952D01*
X12209524Y-12740476D01*
X12190476Y-12740476D01*
X12171428Y-12730952D01*
X12161905Y-12721428D01*
X12152381Y-12702381D01*
X12142857Y-12664286D01*
X12142857Y-12616667D01*
X12152381Y-12578571D01*
X12161905Y-12559524D01*
X12171428Y-12550000D01*
X12190476Y-12540476D01*
X12342857Y-12721428D02*
X12352381Y-12730952D01*
X12342857Y-12740476D01*
X12333333Y-12730952D01*
X12342857Y-12721428D01*
X12342857Y-12740476D01*
X12476190Y-12540476D02*
X12495238Y-12540476D01*
X12514286Y-12550000D01*
X12523809Y-12559524D01*
X12533333Y-12578571D01*
X12542857Y-12616667D01*
X12542857Y-12664286D01*
X12533333Y-12702381D01*
X12523809Y-12721428D01*
X12514286Y-12730952D01*
X12495238Y-12740476D01*
X12476190Y-12740476D01*
X12457143Y-12730952D01*
X12447619Y-12721428D01*
X12438095Y-12702381D01*
X12428571Y-12664286D01*
X12428571Y-12616667D01*
X12438095Y-12578571D01*
X12447619Y-12559524D01*
X12457143Y-12550000D01*
X12476190Y-12540476D01*
X12657143Y-12626190D02*
X12638095Y-12616667D01*
X12628571Y-12607143D01*
X12619048Y-12588095D01*
X12619048Y-12578571D01*
X12628571Y-12559524D01*
X12638095Y-12550000D01*
X12657143Y-12540476D01*
X12695238Y-12540476D01*
X12714286Y-12550000D01*
X12723809Y-12559524D01*
X12733333Y-12578571D01*
X12733333Y-12588095D01*
X12723809Y-12607143D01*
X12714286Y-12616667D01*
X12695238Y-12626190D01*
X12657143Y-12626190D01*
X12638095Y-12635714D01*
X12628571Y-12645238D01*
X12619048Y-12664286D01*
X12619048Y-12702381D01*
X12628571Y-12721428D01*
X12638095Y-12730952D01*
X12657143Y-12740476D01*
X12695238Y-12740476D01*
X12714286Y-12730952D01*
X12723809Y-12721428D01*
X12733333Y-12702381D01*
X12733333Y-12664286D01*
X12723809Y-12645238D01*
X12714286Y-12635714D01*
X12695238Y-12626190D01*
X12904762Y-12540476D02*
X12866667Y-12540476D01*
X12847619Y-12550000D01*
X12838095Y-12559524D01*
X12819048Y-12588095D01*
X12809524Y-12626190D01*
X12809524Y-12702381D01*
X12819048Y-12721428D01*
X12828571Y-12730952D01*
X12847619Y-12740476D01*
X12885714Y-12740476D01*
X12904762Y-12730952D01*
X12914286Y-12721428D01*
X12923809Y-12702381D01*
X12923809Y-12654762D01*
X12914286Y-12635714D01*
X12904762Y-12626190D01*
X12885714Y-12616667D01*
X12847619Y-12616667D01*
X12828571Y-12626190D01*
X12819048Y-12635714D01*
X12809524Y-12654762D01*
X13095238Y-12540476D02*
X13057143Y-12540476D01*
X13038095Y-12550000D01*
X13028571Y-12559524D01*
X13009524Y-12588095D01*
X13000000Y-12626190D01*
X13000000Y-12702381D01*
X13009524Y-12721428D01*
X13019048Y-12730952D01*
X13038095Y-12740476D01*
X13076190Y-12740476D01*
X13095238Y-12730952D01*
X13104762Y-12721428D01*
X13114286Y-12702381D01*
X13114286Y-12654762D01*
X13104762Y-12635714D01*
X13095238Y-12626190D01*
X13076190Y-12616667D01*
X13038095Y-12616667D01*
X13019048Y-12626190D01*
X13009524Y-12635714D01*
X13000000Y-12654762D01*
X13190476Y-12540476D02*
X13190476Y-12578571D01*
X13266667Y-12540476D02*
X13266667Y-12578571D01*
X13561905Y-12816667D02*
X13552381Y-12807143D01*
X13533333Y-12778571D01*
X13523809Y-12759524D01*
X13514286Y-12730952D01*
X13504762Y-12683333D01*
X13504762Y-12645238D01*
X13514286Y-12597619D01*
X13523809Y-12569048D01*
X13533333Y-12550000D01*
X13552381Y-12521428D01*
X13561905Y-12511905D01*
X13723809Y-12607143D02*
X13723809Y-12740476D01*
X13676190Y-12530952D02*
X13628571Y-12673809D01*
X13752381Y-12673809D01*
X13980952Y-12740476D02*
X13980952Y-12540476D01*
X14066667Y-12740476D02*
X14066667Y-12635714D01*
X14057143Y-12616667D01*
X14038095Y-12607143D01*
X14009524Y-12607143D01*
X13990476Y-12616667D01*
X13980952Y-12626190D01*
X14190476Y-12740476D02*
X14171428Y-12730952D01*
X14161905Y-12721428D01*
X14152381Y-12702381D01*
X14152381Y-12645238D01*
X14161905Y-12626190D01*
X14171428Y-12616667D01*
X14190476Y-12607143D01*
X14219048Y-12607143D01*
X14238095Y-12616667D01*
X14247619Y-12626190D01*
X14257143Y-12645238D01*
X14257143Y-12702381D01*
X14247619Y-12721428D01*
X14238095Y-12730952D01*
X14219048Y-12740476D01*
X14190476Y-12740476D01*
X14371428Y-12740476D02*
X14352381Y-12730952D01*
X14342857Y-12711905D01*
X14342857Y-12540476D01*
X14523809Y-12730952D02*
X14504762Y-12740476D01*
X14466667Y-12740476D01*
X14447619Y-12730952D01*
X14438095Y-12711905D01*
X14438095Y-12635714D01*
X14447619Y-12616667D01*
X14466667Y-12607143D01*
X14504762Y-12607143D01*
X14523809Y-12616667D01*
X14533333Y-12635714D01*
X14533333Y-12654762D01*
X14438095Y-12673809D01*
X14609524Y-12730952D02*
X14628571Y-12740476D01*
X14666667Y-12740476D01*
X14685714Y-12730952D01*
X14695238Y-12711905D01*
X14695238Y-12702381D01*
X14685714Y-12683333D01*
X14666667Y-12673809D01*
X14638095Y-12673809D01*
X14619048Y-12664286D01*
X14609524Y-12645238D01*
X14609524Y-12635714D01*
X14619048Y-12616667D01*
X14638095Y-12607143D01*
X14666667Y-12607143D01*
X14685714Y-12616667D01*
X14761905Y-12816667D02*
X14771428Y-12807143D01*
X14790476Y-12778571D01*
X14800000Y-12759524D01*
X14809524Y-12730952D01*
X14819048Y-12683333D01*
X14819048Y-12645238D01*
X14809524Y-12597619D01*
X14800000Y-12569048D01*
X14790476Y-12550000D01*
X14771428Y-12521428D01*
X14761905Y-12511905D01*
X15123809Y-12816667D02*
X15114286Y-12807143D01*
X15095238Y-12778571D01*
X15085714Y-12759524D01*
X15076190Y-12730952D01*
X15066667Y-12683333D01*
X15066667Y-12645238D01*
X15076190Y-12597619D01*
X15085714Y-12569048D01*
X15095238Y-12550000D01*
X15114286Y-12521428D01*
X15123809Y-12511905D01*
X15200000Y-12607143D02*
X15200000Y-12740476D01*
X15200000Y-12626190D02*
X15209524Y-12616667D01*
X15228571Y-12607143D01*
X15257143Y-12607143D01*
X15276190Y-12616667D01*
X15285714Y-12635714D01*
X15285714Y-12740476D01*
X15409524Y-12740476D02*
X15390476Y-12730952D01*
X15380952Y-12721428D01*
X15371428Y-12702381D01*
X15371428Y-12645238D01*
X15380952Y-12626190D01*
X15390476Y-12616667D01*
X15409524Y-12607143D01*
X15438095Y-12607143D01*
X15457143Y-12616667D01*
X15466667Y-12626190D01*
X15476190Y-12645238D01*
X15476190Y-12702381D01*
X15466667Y-12721428D01*
X15457143Y-12730952D01*
X15438095Y-12740476D01*
X15409524Y-12740476D01*
X15533333Y-12607143D02*
X15609524Y-12607143D01*
X15561905Y-12540476D02*
X15561905Y-12711905D01*
X15571428Y-12730952D01*
X15590476Y-12740476D01*
X15609524Y-12740476D01*
X15828571Y-12607143D02*
X15828571Y-12807143D01*
X15828571Y-12616667D02*
X15847619Y-12607143D01*
X15885714Y-12607143D01*
X15904762Y-12616667D01*
X15914286Y-12626190D01*
X15923809Y-12645238D01*
X15923809Y-12702381D01*
X15914286Y-12721428D01*
X15904762Y-12730952D01*
X15885714Y-12740476D01*
X15847619Y-12740476D01*
X15828571Y-12730952D01*
X16038095Y-12740476D02*
X16019048Y-12730952D01*
X16009524Y-12711905D01*
X16009524Y-12540476D01*
X16200000Y-12740476D02*
X16200000Y-12635714D01*
X16190476Y-12616667D01*
X16171428Y-12607143D01*
X16133333Y-12607143D01*
X16114286Y-12616667D01*
X16200000Y-12730952D02*
X16180952Y-12740476D01*
X16133333Y-12740476D01*
X16114286Y-12730952D01*
X16104762Y-12711905D01*
X16104762Y-12692857D01*
X16114286Y-12673809D01*
X16133333Y-12664286D01*
X16180952Y-12664286D01*
X16200000Y-12654762D01*
X16266667Y-12607143D02*
X16342857Y-12607143D01*
X16295238Y-12540476D02*
X16295238Y-12711905D01*
X16304762Y-12730952D01*
X16323809Y-12740476D01*
X16342857Y-12740476D01*
X16485714Y-12730952D02*
X16466667Y-12740476D01*
X16428571Y-12740476D01*
X16409524Y-12730952D01*
X16400000Y-12711905D01*
X16400000Y-12635714D01*
X16409524Y-12616667D01*
X16428571Y-12607143D01*
X16466667Y-12607143D01*
X16485714Y-12616667D01*
X16495238Y-12635714D01*
X16495238Y-12654762D01*
X16400000Y-12673809D01*
X16666667Y-12740476D02*
X16666667Y-12540476D01*
X16666667Y-12730952D02*
X16647619Y-12740476D01*
X16609524Y-12740476D01*
X16590476Y-12730952D01*
X16580952Y-12721428D01*
X16571428Y-12702381D01*
X16571428Y-12645238D01*
X16580952Y-12626190D01*
X16590476Y-12616667D01*
X16609524Y-12607143D01*
X16647619Y-12607143D01*
X16666667Y-12616667D01*
X16742857Y-12816667D02*
X16752381Y-12807143D01*
X16771428Y-12778571D01*
X16780952Y-12759524D01*
X16790476Y-12730952D01*
X16800000Y-12683333D01*
X16800000Y-12645238D01*
X16790476Y-12597619D01*
X16780952Y-12569048D01*
X16771428Y-12550000D01*
X16752381Y-12521428D01*
X16742857Y-12511905D01*
M02*
