%TF.GenerationSoftware,KiCad,Pcbnew,(6.0.6-0)*%
%TF.CreationDate,2023-01-17T17:24:57+00:00*%
%TF.ProjectId,preamplifier-tqp3m9028,70726561-6d70-46c6-9966-6965722d7471,1.0*%
%TF.SameCoordinates,Original*%
%TF.FileFunction,Copper,L1,Top*%
%TF.FilePolarity,Positive*%
%FSLAX46Y46*%
G04 Gerber Fmt 4.6, Leading zero omitted, Abs format (unit mm)*
G04 Created by KiCad (PCBNEW (6.0.6-0)) date 2023-01-17 17:24:57*
%MOMM*%
%LPD*%
G01*
G04 APERTURE LIST*
G04 Aperture macros list*
%AMRoundRect*
0 Rectangle with rounded corners*
0 $1 Rounding radius*
0 $2 $3 $4 $5 $6 $7 $8 $9 X,Y pos of 4 corners*
0 Add a 4 corners polygon primitive as box body*
4,1,4,$2,$3,$4,$5,$6,$7,$8,$9,$2,$3,0*
0 Add four circle primitives for the rounded corners*
1,1,$1+$1,$2,$3*
1,1,$1+$1,$4,$5*
1,1,$1+$1,$6,$7*
1,1,$1+$1,$8,$9*
0 Add four rect primitives between the rounded corners*
20,1,$1+$1,$2,$3,$4,$5,0*
20,1,$1+$1,$4,$5,$6,$7,0*
20,1,$1+$1,$6,$7,$8,$9,0*
20,1,$1+$1,$8,$9,$2,$3,0*%
%AMFreePoly0*
4,1,9,3.862500,-0.866500,0.737500,-0.866500,0.737500,-0.450000,-0.737500,-0.450000,-0.737500,0.450000,0.737500,0.450000,0.737500,0.866500,3.862500,0.866500,3.862500,-0.866500,3.862500,-0.866500,$1*%
G04 Aperture macros list end*
%TA.AperFunction,SMDPad,CuDef*%
%ADD10RoundRect,0.250000X-0.250000X-0.475000X0.250000X-0.475000X0.250000X0.475000X-0.250000X0.475000X0*%
%TD*%
%TA.AperFunction,SMDPad,CuDef*%
%ADD11C,1.500000*%
%TD*%
%TA.AperFunction,SMDPad,CuDef*%
%ADD12R,0.900000X1.300000*%
%TD*%
%TA.AperFunction,SMDPad,CuDef*%
%ADD13FreePoly0,90.000000*%
%TD*%
%TA.AperFunction,SMDPad,CuDef*%
%ADD14RoundRect,0.225000X-0.225000X-0.250000X0.225000X-0.250000X0.225000X0.250000X-0.225000X0.250000X0*%
%TD*%
%TA.AperFunction,SMDPad,CuDef*%
%ADD15R,1.500000X2.000000*%
%TD*%
%TA.AperFunction,SMDPad,CuDef*%
%ADD16R,3.800000X2.000000*%
%TD*%
%TA.AperFunction,ComponentPad*%
%ADD17C,2.100000*%
%TD*%
%TA.AperFunction,ComponentPad*%
%ADD18C,2.250000*%
%TD*%
%TA.AperFunction,SMDPad,CuDef*%
%ADD19RoundRect,0.218750X-0.256250X0.218750X-0.256250X-0.218750X0.256250X-0.218750X0.256250X0.218750X0*%
%TD*%
%TA.AperFunction,ComponentPad*%
%ADD20R,4.400000X1.800000*%
%TD*%
%TA.AperFunction,ComponentPad*%
%ADD21O,4.000000X1.800000*%
%TD*%
%TA.AperFunction,ComponentPad*%
%ADD22O,1.800000X4.000000*%
%TD*%
%TA.AperFunction,ViaPad*%
%ADD23C,0.800000*%
%TD*%
%TA.AperFunction,Conductor*%
%ADD24C,1.200000*%
%TD*%
%TA.AperFunction,Conductor*%
%ADD25C,1.100000*%
%TD*%
%TA.AperFunction,Conductor*%
%ADD26C,0.500000*%
%TD*%
%TA.AperFunction,Conductor*%
%ADD27C,0.250000*%
%TD*%
G04 APERTURE END LIST*
D10*
X124050000Y-100000000D03*
X125950000Y-100000000D03*
D11*
X132200000Y-92200000D03*
D12*
X116000000Y-110000000D03*
D13*
X117500000Y-109912500D03*
D12*
X119000000Y-110000000D03*
D14*
X122825000Y-104400000D03*
X124375000Y-104400000D03*
D15*
X128995200Y-90350000D03*
D16*
X126695200Y-96650000D03*
D15*
X126695200Y-90350000D03*
X124395200Y-90350000D03*
D17*
X105000000Y-110000000D03*
D18*
X107550000Y-107450000D03*
X107550000Y-112550000D03*
X102450000Y-107450000D03*
X102450000Y-112550000D03*
D14*
X123225000Y-110000000D03*
X124775000Y-110000000D03*
D11*
X132200000Y-96200000D03*
D10*
X123967200Y-86842600D03*
X125867200Y-86842600D03*
D14*
X111225000Y-110000000D03*
X112775000Y-110000000D03*
X122825000Y-102400000D03*
X124375000Y-102400000D03*
D19*
X121300000Y-108412500D03*
X121300000Y-109987500D03*
D17*
X130000000Y-110000000D03*
D18*
X132550000Y-107450000D03*
X127450000Y-112550000D03*
X132550000Y-112550000D03*
X127450000Y-107450000D03*
D20*
X117500000Y-98856800D03*
D21*
X117500000Y-93056800D03*
D22*
X112700000Y-95856800D03*
D23*
X121025000Y-107050000D03*
X123325000Y-107125000D03*
X114400000Y-108600000D03*
X127575000Y-86825000D03*
X126000000Y-104200000D03*
X115750000Y-91000000D03*
X121200000Y-101150000D03*
X111400000Y-108600000D03*
X116000000Y-108400000D03*
X116000000Y-107400000D03*
X124000000Y-106000000D03*
X122600000Y-108600000D03*
X127750000Y-99900000D03*
X110750000Y-93750000D03*
X128250000Y-93250000D03*
X118000000Y-105200000D03*
X110750000Y-96250000D03*
X117000000Y-105200000D03*
X120400000Y-111400000D03*
X112400000Y-111400000D03*
X127750000Y-101000000D03*
X123600000Y-108600000D03*
X121200000Y-99600000D03*
X124825000Y-94800000D03*
X109400000Y-108600000D03*
X119400000Y-111400000D03*
X119000000Y-108400000D03*
X111400000Y-111400000D03*
X109400000Y-111400000D03*
X118400000Y-111400000D03*
X119000000Y-105200000D03*
X125600000Y-108600000D03*
X124400000Y-111400000D03*
X122400000Y-111400000D03*
X114400000Y-111400000D03*
X116400000Y-111400000D03*
X110400000Y-108600000D03*
X130775000Y-90350000D03*
X123400000Y-111400000D03*
X116000000Y-106200000D03*
X125400000Y-111400000D03*
X126000000Y-102200000D03*
X110750000Y-97500000D03*
X124600000Y-108600000D03*
X117400000Y-111400000D03*
X116000000Y-105200000D03*
X125200000Y-105800000D03*
X128250000Y-94500000D03*
X121200000Y-102825000D03*
X117500000Y-91000000D03*
X110750000Y-95000000D03*
X110400000Y-111400000D03*
X119000000Y-106200000D03*
X120000000Y-108400000D03*
X126000000Y-103200000D03*
X123750000Y-96500000D03*
X112400000Y-108600000D03*
X113400000Y-111400000D03*
X121400000Y-111400000D03*
X127750000Y-98800000D03*
X119250000Y-91000000D03*
X115400000Y-111400000D03*
X113400000Y-108600000D03*
X119000000Y-107400000D03*
X126000000Y-105200000D03*
D24*
X122500000Y-95000000D02*
X124395200Y-93104800D01*
X124395200Y-90350000D02*
X124395200Y-88895200D01*
X124395200Y-88895200D02*
X123967200Y-88467200D01*
X124395200Y-93104800D02*
X124395200Y-90350000D01*
X119750000Y-95000000D02*
X122500000Y-95000000D01*
X123967200Y-88467200D02*
X123967200Y-86842600D01*
X117500000Y-97250000D02*
X119750000Y-95000000D01*
X117500000Y-98856800D02*
X117500000Y-97250000D01*
D25*
X105000000Y-110000000D02*
X110800000Y-110000000D01*
X113200000Y-110000000D02*
X116000000Y-110000000D01*
D24*
X124050000Y-98700000D02*
X126100000Y-96650000D01*
D26*
X122825000Y-101225000D02*
X124231400Y-99818600D01*
X122200000Y-107512500D02*
X121300000Y-108412500D01*
D27*
X126940400Y-92200000D02*
X126695200Y-92445200D01*
D24*
X126695200Y-92445200D02*
X126695200Y-96650000D01*
X124050000Y-100000000D02*
X124050000Y-98700000D01*
D26*
X122200000Y-105025000D02*
X122200000Y-107512500D01*
X122825000Y-104400000D02*
X122825000Y-102400000D01*
X122200000Y-105025000D02*
X122825000Y-104400000D01*
D27*
X126100000Y-96650000D02*
X126695200Y-96650000D01*
D24*
X126695200Y-90350000D02*
X126695200Y-92445200D01*
D27*
X132200000Y-92200000D02*
X126940400Y-92200000D01*
D26*
X122825000Y-102400000D02*
X122825000Y-101225000D01*
D25*
X119000000Y-110000000D02*
X123225000Y-110000000D01*
X130000000Y-110000000D02*
X124775000Y-110000000D01*
%TA.AperFunction,Conductor*%
G36*
X134681048Y-85318952D02*
G01*
X134699500Y-85363500D01*
X134699500Y-119636500D01*
X134681048Y-119681048D01*
X134636500Y-119699500D01*
X100363500Y-119699500D01*
X100318952Y-119681048D01*
X100300500Y-119636500D01*
X100300500Y-117433789D01*
X101095996Y-117433789D01*
X101104913Y-117671295D01*
X101153719Y-117903904D01*
X101241020Y-118124963D01*
X101242401Y-118127238D01*
X101242403Y-118127243D01*
X101311233Y-118240670D01*
X101364319Y-118328153D01*
X101520090Y-118507664D01*
X101703880Y-118658362D01*
X101706197Y-118659681D01*
X101706200Y-118659683D01*
X101908115Y-118774620D01*
X101908120Y-118774622D01*
X101910433Y-118775939D01*
X102133844Y-118857034D01*
X102136465Y-118857508D01*
X102136469Y-118857509D01*
X102365694Y-118898959D01*
X102365698Y-118898959D01*
X102367725Y-118899326D01*
X102389381Y-118900347D01*
X102391897Y-118900466D01*
X102391899Y-118900466D01*
X102392619Y-118900500D01*
X102559680Y-118900500D01*
X102649716Y-118892860D01*
X102734165Y-118885695D01*
X102734170Y-118885694D01*
X102736823Y-118885469D01*
X102966874Y-118825760D01*
X103183576Y-118728143D01*
X103380732Y-118595409D01*
X103552705Y-118431355D01*
X103694579Y-118240670D01*
X103802295Y-118028807D01*
X103872775Y-117801824D01*
X103904004Y-117566211D01*
X103899032Y-117433789D01*
X131095996Y-117433789D01*
X131104913Y-117671295D01*
X131153719Y-117903904D01*
X131241020Y-118124963D01*
X131242401Y-118127238D01*
X131242403Y-118127243D01*
X131311233Y-118240670D01*
X131364319Y-118328153D01*
X131520090Y-118507664D01*
X131703880Y-118658362D01*
X131706197Y-118659681D01*
X131706200Y-118659683D01*
X131908115Y-118774620D01*
X131908120Y-118774622D01*
X131910433Y-118775939D01*
X132133844Y-118857034D01*
X132136465Y-118857508D01*
X132136469Y-118857509D01*
X132365694Y-118898959D01*
X132365698Y-118898959D01*
X132367725Y-118899326D01*
X132389381Y-118900347D01*
X132391897Y-118900466D01*
X132391899Y-118900466D01*
X132392619Y-118900500D01*
X132559680Y-118900500D01*
X132649716Y-118892860D01*
X132734165Y-118885695D01*
X132734170Y-118885694D01*
X132736823Y-118885469D01*
X132966874Y-118825760D01*
X133183576Y-118728143D01*
X133380732Y-118595409D01*
X133552705Y-118431355D01*
X133694579Y-118240670D01*
X133802295Y-118028807D01*
X133872775Y-117801824D01*
X133904004Y-117566211D01*
X133895087Y-117328705D01*
X133846281Y-117096096D01*
X133758980Y-116875037D01*
X133757599Y-116872762D01*
X133757597Y-116872757D01*
X133637064Y-116674126D01*
X133637064Y-116674125D01*
X133635681Y-116671847D01*
X133479910Y-116492336D01*
X133296120Y-116341638D01*
X133293803Y-116340319D01*
X133293800Y-116340317D01*
X133091885Y-116225380D01*
X133091880Y-116225378D01*
X133089567Y-116224061D01*
X132866156Y-116142966D01*
X132863535Y-116142492D01*
X132863531Y-116142491D01*
X132634306Y-116101041D01*
X132634302Y-116101041D01*
X132632275Y-116100674D01*
X132609777Y-116099613D01*
X132608103Y-116099534D01*
X132608101Y-116099534D01*
X132607381Y-116099500D01*
X132440320Y-116099500D01*
X132350284Y-116107140D01*
X132265835Y-116114305D01*
X132265830Y-116114306D01*
X132263177Y-116114531D01*
X132033126Y-116174240D01*
X131816424Y-116271857D01*
X131619268Y-116404591D01*
X131447295Y-116568645D01*
X131305421Y-116759330D01*
X131197705Y-116971193D01*
X131127225Y-117198176D01*
X131095996Y-117433789D01*
X103899032Y-117433789D01*
X103895087Y-117328705D01*
X103846281Y-117096096D01*
X103758980Y-116875037D01*
X103757599Y-116872762D01*
X103757597Y-116872757D01*
X103637064Y-116674126D01*
X103637064Y-116674125D01*
X103635681Y-116671847D01*
X103479910Y-116492336D01*
X103296120Y-116341638D01*
X103293803Y-116340319D01*
X103293800Y-116340317D01*
X103091885Y-116225380D01*
X103091880Y-116225378D01*
X103089567Y-116224061D01*
X102866156Y-116142966D01*
X102863535Y-116142492D01*
X102863531Y-116142491D01*
X102634306Y-116101041D01*
X102634302Y-116101041D01*
X102632275Y-116100674D01*
X102609777Y-116099613D01*
X102608103Y-116099534D01*
X102608101Y-116099534D01*
X102607381Y-116099500D01*
X102440320Y-116099500D01*
X102350284Y-116107140D01*
X102265835Y-116114305D01*
X102265830Y-116114306D01*
X102263177Y-116114531D01*
X102033126Y-116174240D01*
X101816424Y-116271857D01*
X101619268Y-116404591D01*
X101447295Y-116568645D01*
X101305421Y-116759330D01*
X101197705Y-116971193D01*
X101127225Y-117198176D01*
X101095996Y-117433789D01*
X100300500Y-117433789D01*
X100300500Y-113872397D01*
X101491214Y-113872397D01*
X101494610Y-113879764D01*
X101704227Y-114008217D01*
X101708632Y-114010462D01*
X101941527Y-114106930D01*
X101946223Y-114108456D01*
X102191341Y-114167304D01*
X102196222Y-114168077D01*
X102447535Y-114187856D01*
X102452465Y-114187856D01*
X102703778Y-114168077D01*
X102708659Y-114167304D01*
X102953777Y-114108456D01*
X102958473Y-114106930D01*
X103191368Y-114010462D01*
X103195773Y-114008217D01*
X103406405Y-113879143D01*
X103408698Y-113874641D01*
X103407870Y-113872397D01*
X106591214Y-113872397D01*
X106594610Y-113879764D01*
X106804227Y-114008217D01*
X106808632Y-114010462D01*
X107041527Y-114106930D01*
X107046223Y-114108456D01*
X107291341Y-114167304D01*
X107296222Y-114168077D01*
X107547535Y-114187856D01*
X107552465Y-114187856D01*
X107803778Y-114168077D01*
X107808659Y-114167304D01*
X108053777Y-114108456D01*
X108058473Y-114106930D01*
X108291368Y-114010462D01*
X108295773Y-114008217D01*
X108506405Y-113879143D01*
X108508698Y-113874641D01*
X108507870Y-113872397D01*
X126491214Y-113872397D01*
X126494610Y-113879764D01*
X126704227Y-114008217D01*
X126708632Y-114010462D01*
X126941527Y-114106930D01*
X126946223Y-114108456D01*
X127191341Y-114167304D01*
X127196222Y-114168077D01*
X127447535Y-114187856D01*
X127452465Y-114187856D01*
X127703778Y-114168077D01*
X127708659Y-114167304D01*
X127953777Y-114108456D01*
X127958473Y-114106930D01*
X128191368Y-114010462D01*
X128195773Y-114008217D01*
X128406405Y-113879143D01*
X128408698Y-113874641D01*
X128407870Y-113872397D01*
X131591214Y-113872397D01*
X131594610Y-113879764D01*
X131804227Y-114008217D01*
X131808632Y-114010462D01*
X132041527Y-114106930D01*
X132046223Y-114108456D01*
X132291341Y-114167304D01*
X132296222Y-114168077D01*
X132547535Y-114187856D01*
X132552465Y-114187856D01*
X132803778Y-114168077D01*
X132808659Y-114167304D01*
X133053777Y-114108456D01*
X133058473Y-114106930D01*
X133291368Y-114010462D01*
X133295773Y-114008217D01*
X133506405Y-113879143D01*
X133508698Y-113874641D01*
X133504762Y-113863972D01*
X132558862Y-112918072D01*
X132550000Y-112914401D01*
X132541138Y-112918072D01*
X131594326Y-113864884D01*
X131591214Y-113872397D01*
X128407870Y-113872397D01*
X128404762Y-113863972D01*
X127458862Y-112918072D01*
X127450000Y-112914401D01*
X127441138Y-112918072D01*
X126494326Y-113864884D01*
X126491214Y-113872397D01*
X108507870Y-113872397D01*
X108504762Y-113863972D01*
X107558862Y-112918072D01*
X107550000Y-112914401D01*
X107541138Y-112918072D01*
X106594326Y-113864884D01*
X106591214Y-113872397D01*
X103407870Y-113872397D01*
X103404762Y-113863972D01*
X102458862Y-112918072D01*
X102450000Y-112914401D01*
X102441138Y-112918072D01*
X101494326Y-113864884D01*
X101491214Y-113872397D01*
X100300500Y-113872397D01*
X100300500Y-112552465D01*
X100812144Y-112552465D01*
X100831923Y-112803778D01*
X100832696Y-112808659D01*
X100891544Y-113053777D01*
X100893070Y-113058473D01*
X100989538Y-113291368D01*
X100991783Y-113295773D01*
X101120857Y-113506405D01*
X101125359Y-113508698D01*
X101136028Y-113504762D01*
X102081928Y-112558862D01*
X102085599Y-112550000D01*
X102814401Y-112550000D01*
X102818072Y-112558862D01*
X103764884Y-113505674D01*
X103772397Y-113508786D01*
X103779764Y-113505390D01*
X103908217Y-113295773D01*
X103910462Y-113291368D01*
X104006930Y-113058473D01*
X104008456Y-113053777D01*
X104067304Y-112808659D01*
X104068077Y-112803778D01*
X104087856Y-112552465D01*
X105912144Y-112552465D01*
X105931923Y-112803778D01*
X105932696Y-112808659D01*
X105991544Y-113053777D01*
X105993070Y-113058473D01*
X106089538Y-113291368D01*
X106091783Y-113295773D01*
X106220857Y-113506405D01*
X106225359Y-113508698D01*
X106236028Y-113504762D01*
X107181928Y-112558862D01*
X107185599Y-112550000D01*
X107914401Y-112550000D01*
X107918072Y-112558862D01*
X108864884Y-113505674D01*
X108872397Y-113508786D01*
X108879764Y-113505390D01*
X109008217Y-113295773D01*
X109010462Y-113291368D01*
X109106930Y-113058473D01*
X109108456Y-113053777D01*
X109167304Y-112808659D01*
X109168077Y-112803778D01*
X109187856Y-112552465D01*
X125812144Y-112552465D01*
X125831923Y-112803778D01*
X125832696Y-112808659D01*
X125891544Y-113053777D01*
X125893070Y-113058473D01*
X125989538Y-113291368D01*
X125991783Y-113295773D01*
X126120857Y-113506405D01*
X126125359Y-113508698D01*
X126136028Y-113504762D01*
X127081928Y-112558862D01*
X127085599Y-112550000D01*
X127814401Y-112550000D01*
X127818072Y-112558862D01*
X128764884Y-113505674D01*
X128772397Y-113508786D01*
X128779764Y-113505390D01*
X128908217Y-113295773D01*
X128910462Y-113291368D01*
X129006930Y-113058473D01*
X129008456Y-113053777D01*
X129067304Y-112808659D01*
X129068077Y-112803778D01*
X129087856Y-112552465D01*
X130912144Y-112552465D01*
X130931923Y-112803778D01*
X130932696Y-112808659D01*
X130991544Y-113053777D01*
X130993070Y-113058473D01*
X131089538Y-113291368D01*
X131091783Y-113295773D01*
X131220857Y-113506405D01*
X131225359Y-113508698D01*
X131236028Y-113504762D01*
X132181928Y-112558862D01*
X132185599Y-112550000D01*
X132914401Y-112550000D01*
X132918072Y-112558862D01*
X133864884Y-113505674D01*
X133872397Y-113508786D01*
X133879764Y-113505390D01*
X134008217Y-113295773D01*
X134010462Y-113291368D01*
X134106930Y-113058473D01*
X134108456Y-113053777D01*
X134167304Y-112808659D01*
X134168077Y-112803778D01*
X134187856Y-112552465D01*
X134187856Y-112547535D01*
X134168077Y-112296222D01*
X134167304Y-112291341D01*
X134108456Y-112046223D01*
X134106930Y-112041527D01*
X134010462Y-111808632D01*
X134008217Y-111804227D01*
X133879143Y-111593595D01*
X133874641Y-111591302D01*
X133863972Y-111595238D01*
X132918072Y-112541138D01*
X132914401Y-112550000D01*
X132185599Y-112550000D01*
X132181928Y-112541138D01*
X131235116Y-111594326D01*
X131227603Y-111591214D01*
X131220236Y-111594610D01*
X131091783Y-111804227D01*
X131089538Y-111808632D01*
X130993070Y-112041527D01*
X130991544Y-112046223D01*
X130932696Y-112291341D01*
X130931923Y-112296222D01*
X130912144Y-112547535D01*
X130912144Y-112552465D01*
X129087856Y-112552465D01*
X129087856Y-112547535D01*
X129068077Y-112296222D01*
X129067304Y-112291341D01*
X129008456Y-112046223D01*
X129006930Y-112041527D01*
X128910462Y-111808632D01*
X128908217Y-111804227D01*
X128779143Y-111593595D01*
X128774641Y-111591302D01*
X128763972Y-111595238D01*
X127818072Y-112541138D01*
X127814401Y-112550000D01*
X127085599Y-112550000D01*
X127081928Y-112541138D01*
X126135116Y-111594326D01*
X126127603Y-111591214D01*
X126120236Y-111594610D01*
X125991783Y-111804227D01*
X125989538Y-111808632D01*
X125893070Y-112041527D01*
X125891544Y-112046223D01*
X125832696Y-112291341D01*
X125831923Y-112296222D01*
X125812144Y-112547535D01*
X125812144Y-112552465D01*
X109187856Y-112552465D01*
X109187856Y-112547535D01*
X109168077Y-112296222D01*
X109167304Y-112291341D01*
X109108456Y-112046223D01*
X109106930Y-112041527D01*
X109010462Y-111808632D01*
X109008217Y-111804227D01*
X108879143Y-111593595D01*
X108874641Y-111591302D01*
X108863972Y-111595238D01*
X107918072Y-112541138D01*
X107914401Y-112550000D01*
X107185599Y-112550000D01*
X107181928Y-112541138D01*
X106235116Y-111594326D01*
X106227603Y-111591214D01*
X106220236Y-111594610D01*
X106091783Y-111804227D01*
X106089538Y-111808632D01*
X105993070Y-112041527D01*
X105991544Y-112046223D01*
X105932696Y-112291341D01*
X105931923Y-112296222D01*
X105912144Y-112547535D01*
X105912144Y-112552465D01*
X104087856Y-112552465D01*
X104087856Y-112547535D01*
X104068077Y-112296222D01*
X104067304Y-112291341D01*
X104008456Y-112046223D01*
X104006930Y-112041527D01*
X103910462Y-111808632D01*
X103908217Y-111804227D01*
X103779143Y-111593595D01*
X103774641Y-111591302D01*
X103763972Y-111595238D01*
X102818072Y-112541138D01*
X102814401Y-112550000D01*
X102085599Y-112550000D01*
X102081928Y-112541138D01*
X101135116Y-111594326D01*
X101127603Y-111591214D01*
X101120236Y-111594610D01*
X100991783Y-111804227D01*
X100989538Y-111808632D01*
X100893070Y-112041527D01*
X100891544Y-112046223D01*
X100832696Y-112291341D01*
X100831923Y-112296222D01*
X100812144Y-112547535D01*
X100812144Y-112552465D01*
X100300500Y-112552465D01*
X100300500Y-111225359D01*
X101491302Y-111225359D01*
X101495238Y-111236028D01*
X102441138Y-112181928D01*
X102450000Y-112185599D01*
X102458862Y-112181928D01*
X103405674Y-111235116D01*
X103408786Y-111227603D01*
X103405390Y-111220236D01*
X103195773Y-111091783D01*
X103191368Y-111089538D01*
X102958473Y-110993070D01*
X102953777Y-110991544D01*
X102708659Y-110932696D01*
X102703778Y-110931923D01*
X102452465Y-110912144D01*
X102447535Y-110912144D01*
X102196222Y-110931923D01*
X102191341Y-110932696D01*
X101946223Y-110991544D01*
X101941527Y-110993070D01*
X101708632Y-111089538D01*
X101704227Y-111091783D01*
X101493595Y-111220857D01*
X101491302Y-111225359D01*
X100300500Y-111225359D01*
X100300500Y-110000000D01*
X103644341Y-110000000D01*
X103664937Y-110235408D01*
X103726097Y-110463663D01*
X103825965Y-110677829D01*
X103827538Y-110680075D01*
X103827540Y-110680079D01*
X103959929Y-110869151D01*
X103959932Y-110869155D01*
X103961505Y-110871401D01*
X104128599Y-111038495D01*
X104130845Y-111040068D01*
X104130849Y-111040071D01*
X104319920Y-111172460D01*
X104319924Y-111172462D01*
X104322170Y-111174035D01*
X104536337Y-111273903D01*
X104764592Y-111335063D01*
X105000000Y-111355659D01*
X105235408Y-111335063D01*
X105463663Y-111273903D01*
X105677830Y-111174035D01*
X105680076Y-111172462D01*
X105680080Y-111172460D01*
X105869151Y-111040071D01*
X105869155Y-111040068D01*
X105871401Y-111038495D01*
X106038495Y-110871401D01*
X106038982Y-110871888D01*
X106079608Y-110850740D01*
X106085098Y-110850500D01*
X107101430Y-110850500D01*
X107145978Y-110868952D01*
X107164430Y-110913500D01*
X107145978Y-110958048D01*
X107116137Y-110974759D01*
X107046223Y-110991544D01*
X107041527Y-110993070D01*
X106808632Y-111089538D01*
X106804227Y-111091783D01*
X106593595Y-111220857D01*
X106591302Y-111225359D01*
X106595238Y-111236028D01*
X107541138Y-112181928D01*
X107550000Y-112185599D01*
X107558862Y-112181928D01*
X108505674Y-111235116D01*
X108508786Y-111227603D01*
X108505390Y-111220236D01*
X108295773Y-111091783D01*
X108291368Y-111089538D01*
X108058473Y-110993070D01*
X108053777Y-110991544D01*
X107983863Y-110974759D01*
X107944854Y-110946417D01*
X107937311Y-110898793D01*
X107965653Y-110859784D01*
X107998570Y-110850500D01*
X110846164Y-110850500D01*
X110847846Y-110850317D01*
X110847851Y-110850317D01*
X110980316Y-110835927D01*
X110980320Y-110835926D01*
X110983709Y-110835558D01*
X111152388Y-110778791D01*
X111172483Y-110775500D01*
X111445024Y-110775499D01*
X111490828Y-110775499D01*
X111576528Y-110765129D01*
X111710395Y-110712128D01*
X111825078Y-110625078D01*
X111912128Y-110510395D01*
X111941424Y-110436401D01*
X111974979Y-110401775D01*
X112023192Y-110401017D01*
X112058576Y-110436401D01*
X112087872Y-110510395D01*
X112174922Y-110625078D01*
X112289605Y-110712128D01*
X112423472Y-110765129D01*
X112427482Y-110765614D01*
X112427485Y-110765615D01*
X112461357Y-110769714D01*
X112509171Y-110775500D01*
X112549999Y-110775500D01*
X112836617Y-110775499D01*
X112863242Y-110781402D01*
X112921204Y-110808431D01*
X112921206Y-110808432D01*
X112924297Y-110809873D01*
X112927624Y-110810617D01*
X112927625Y-110810617D01*
X113039207Y-110835558D01*
X113104637Y-110850183D01*
X113110307Y-110850500D01*
X115299393Y-110850500D01*
X115343902Y-110868914D01*
X115377287Y-110902241D01*
X115479673Y-110947506D01*
X115484380Y-110948055D01*
X115484381Y-110948055D01*
X115503532Y-110950288D01*
X115503539Y-110950288D01*
X115505354Y-110950500D01*
X116494646Y-110950500D01*
X116496492Y-110950280D01*
X116496497Y-110950280D01*
X116509474Y-110948735D01*
X116520846Y-110947382D01*
X116555649Y-110931923D01*
X116617840Y-110904299D01*
X116623153Y-110901939D01*
X116652097Y-110872945D01*
X116698132Y-110826829D01*
X116702241Y-110822713D01*
X116744142Y-110727936D01*
X116745590Y-110724661D01*
X116747506Y-110720327D01*
X116748765Y-110709528D01*
X116750288Y-110696468D01*
X116750288Y-110696461D01*
X116750500Y-110694646D01*
X116750500Y-110425732D01*
X116756403Y-110402051D01*
X116755375Y-110401640D01*
X116822732Y-110233235D01*
X116824000Y-110230065D01*
X116854181Y-110047756D01*
X116849176Y-109952244D01*
X118145819Y-109952244D01*
X118155490Y-110136781D01*
X118204562Y-110314936D01*
X118206152Y-110317952D01*
X118206153Y-110317954D01*
X118242228Y-110386376D01*
X118249500Y-110415759D01*
X118249500Y-110694646D01*
X118252618Y-110720846D01*
X118254536Y-110725164D01*
X118295503Y-110817393D01*
X118298061Y-110823153D01*
X118377287Y-110902241D01*
X118479673Y-110947506D01*
X118484380Y-110948055D01*
X118484381Y-110948055D01*
X118503532Y-110950288D01*
X118503539Y-110950288D01*
X118505354Y-110950500D01*
X119494646Y-110950500D01*
X119496492Y-110950280D01*
X119496497Y-110950280D01*
X119509474Y-110948735D01*
X119520846Y-110947382D01*
X119555649Y-110931923D01*
X119617840Y-110904299D01*
X119623153Y-110901939D01*
X119627260Y-110897825D01*
X119627263Y-110897823D01*
X119656043Y-110868992D01*
X119700630Y-110850500D01*
X123271164Y-110850500D01*
X123272846Y-110850317D01*
X123272851Y-110850317D01*
X123405316Y-110835927D01*
X123405320Y-110835926D01*
X123408709Y-110835558D01*
X123583848Y-110776617D01*
X123586774Y-110774859D01*
X123586776Y-110774858D01*
X123649605Y-110737106D01*
X123658862Y-110732531D01*
X123700221Y-110716156D01*
X123710395Y-110712128D01*
X123825078Y-110625078D01*
X123912128Y-110510395D01*
X123917472Y-110496898D01*
X123923941Y-110484680D01*
X123946727Y-110451153D01*
X123987028Y-110424681D01*
X124034244Y-110434460D01*
X124054560Y-110457182D01*
X124065746Y-110478398D01*
X124067950Y-110481006D01*
X124076880Y-110491573D01*
X124083681Y-110502939D01*
X124084181Y-110502657D01*
X124086290Y-110506399D01*
X124087872Y-110510395D01*
X124174922Y-110625078D01*
X124289605Y-110712128D01*
X124315732Y-110722472D01*
X124325985Y-110728274D01*
X124326190Y-110727936D01*
X124329108Y-110729704D01*
X124331820Y-110731777D01*
X124334912Y-110733219D01*
X124334914Y-110733220D01*
X124496204Y-110808431D01*
X124496206Y-110808432D01*
X124499297Y-110809873D01*
X124502624Y-110810617D01*
X124502625Y-110810617D01*
X124614207Y-110835558D01*
X124679637Y-110850183D01*
X124685307Y-110850500D01*
X127001430Y-110850500D01*
X127045978Y-110868952D01*
X127064430Y-110913500D01*
X127045978Y-110958048D01*
X127016137Y-110974759D01*
X126946223Y-110991544D01*
X126941527Y-110993070D01*
X126708632Y-111089538D01*
X126704227Y-111091783D01*
X126493595Y-111220857D01*
X126491302Y-111225359D01*
X126495238Y-111236028D01*
X127441138Y-112181928D01*
X127450000Y-112185599D01*
X127458862Y-112181928D01*
X128405674Y-111235116D01*
X128408786Y-111227603D01*
X128405390Y-111220236D01*
X128195773Y-111091783D01*
X128191368Y-111089538D01*
X127958473Y-110993070D01*
X127953777Y-110991544D01*
X127883863Y-110974759D01*
X127844854Y-110946417D01*
X127837311Y-110898793D01*
X127865653Y-110859784D01*
X127898570Y-110850500D01*
X128914902Y-110850500D01*
X128959450Y-110868952D01*
X128960894Y-110870528D01*
X128961505Y-110871401D01*
X129128599Y-111038495D01*
X129130845Y-111040068D01*
X129130849Y-111040071D01*
X129319920Y-111172460D01*
X129319924Y-111172462D01*
X129322170Y-111174035D01*
X129536337Y-111273903D01*
X129764592Y-111335063D01*
X130000000Y-111355659D01*
X130235408Y-111335063D01*
X130463663Y-111273903D01*
X130567766Y-111225359D01*
X131591302Y-111225359D01*
X131595238Y-111236028D01*
X132541138Y-112181928D01*
X132550000Y-112185599D01*
X132558862Y-112181928D01*
X133505674Y-111235116D01*
X133508786Y-111227603D01*
X133505390Y-111220236D01*
X133295773Y-111091783D01*
X133291368Y-111089538D01*
X133058473Y-110993070D01*
X133053777Y-110991544D01*
X132808659Y-110932696D01*
X132803778Y-110931923D01*
X132552465Y-110912144D01*
X132547535Y-110912144D01*
X132296222Y-110931923D01*
X132291341Y-110932696D01*
X132046223Y-110991544D01*
X132041527Y-110993070D01*
X131808632Y-111089538D01*
X131804227Y-111091783D01*
X131593595Y-111220857D01*
X131591302Y-111225359D01*
X130567766Y-111225359D01*
X130677830Y-111174035D01*
X130680076Y-111172462D01*
X130680080Y-111172460D01*
X130869151Y-111040071D01*
X130869155Y-111040068D01*
X130871401Y-111038495D01*
X131038495Y-110871401D01*
X131040068Y-110869155D01*
X131040071Y-110869151D01*
X131172460Y-110680079D01*
X131172462Y-110680075D01*
X131174035Y-110677829D01*
X131273903Y-110463663D01*
X131335063Y-110235408D01*
X131355659Y-110000000D01*
X131335063Y-109764592D01*
X131273903Y-109536337D01*
X131174035Y-109322171D01*
X131163568Y-109307222D01*
X131040071Y-109130849D01*
X131040068Y-109130845D01*
X131038495Y-109128599D01*
X130871401Y-108961505D01*
X130869155Y-108959932D01*
X130869151Y-108959929D01*
X130680080Y-108827540D01*
X130680076Y-108827538D01*
X130677830Y-108825965D01*
X130562953Y-108772397D01*
X131591214Y-108772397D01*
X131594610Y-108779764D01*
X131804227Y-108908217D01*
X131808632Y-108910462D01*
X132041527Y-109006930D01*
X132046223Y-109008456D01*
X132291341Y-109067304D01*
X132296222Y-109068077D01*
X132547535Y-109087856D01*
X132552465Y-109087856D01*
X132803778Y-109068077D01*
X132808659Y-109067304D01*
X133053777Y-109008456D01*
X133058473Y-109006930D01*
X133291368Y-108910462D01*
X133295773Y-108908217D01*
X133506405Y-108779143D01*
X133508698Y-108774641D01*
X133504762Y-108763972D01*
X132558862Y-107818072D01*
X132550000Y-107814401D01*
X132541138Y-107818072D01*
X131594326Y-108764884D01*
X131591214Y-108772397D01*
X130562953Y-108772397D01*
X130463663Y-108726097D01*
X130235408Y-108664937D01*
X130000000Y-108644341D01*
X129764592Y-108664937D01*
X129536337Y-108726097D01*
X129322171Y-108825965D01*
X129319925Y-108827538D01*
X129319921Y-108827540D01*
X129130849Y-108959929D01*
X129130845Y-108959932D01*
X129128599Y-108961505D01*
X128961505Y-109128599D01*
X128961018Y-109128112D01*
X128920392Y-109149260D01*
X128914902Y-109149500D01*
X127898570Y-109149500D01*
X127854022Y-109131048D01*
X127835570Y-109086500D01*
X127854022Y-109041952D01*
X127883863Y-109025241D01*
X127953777Y-109008456D01*
X127958473Y-109006930D01*
X128191368Y-108910462D01*
X128195773Y-108908217D01*
X128406405Y-108779143D01*
X128408698Y-108774641D01*
X128404762Y-108763972D01*
X127458862Y-107818072D01*
X127450000Y-107814401D01*
X127441138Y-107818072D01*
X126494326Y-108764884D01*
X126491214Y-108772397D01*
X126494610Y-108779764D01*
X126704227Y-108908217D01*
X126708632Y-108910462D01*
X126941527Y-109006930D01*
X126946223Y-109008456D01*
X127016137Y-109025241D01*
X127055146Y-109053583D01*
X127062689Y-109101207D01*
X127034347Y-109140216D01*
X127001430Y-109149500D01*
X124728836Y-109149500D01*
X124727154Y-109149683D01*
X124727149Y-109149683D01*
X124594684Y-109164073D01*
X124594680Y-109164074D01*
X124591291Y-109164442D01*
X124416152Y-109223383D01*
X124413226Y-109225141D01*
X124413224Y-109225142D01*
X124350395Y-109262894D01*
X124341138Y-109267469D01*
X124289605Y-109287872D01*
X124174922Y-109374922D01*
X124087872Y-109489605D01*
X124082528Y-109503102D01*
X124076059Y-109515320D01*
X124053273Y-109548847D01*
X124012972Y-109575319D01*
X123965756Y-109565540D01*
X123945439Y-109542817D01*
X123935845Y-109524620D01*
X123934254Y-109521602D01*
X123923120Y-109508427D01*
X123916319Y-109497061D01*
X123915819Y-109497343D01*
X123913709Y-109493599D01*
X123912128Y-109489605D01*
X123825078Y-109374922D01*
X123710395Y-109287872D01*
X123684268Y-109277528D01*
X123674015Y-109271726D01*
X123673810Y-109272064D01*
X123670892Y-109270296D01*
X123668180Y-109268223D01*
X123665088Y-109266781D01*
X123665086Y-109266780D01*
X123503796Y-109191569D01*
X123503794Y-109191568D01*
X123500703Y-109190127D01*
X123497376Y-109189383D01*
X123497375Y-109189383D01*
X123322882Y-109150380D01*
X123322881Y-109150380D01*
X123320363Y-109149817D01*
X123314693Y-109149500D01*
X121919568Y-109149500D01*
X121875020Y-109131048D01*
X121856568Y-109086500D01*
X121875020Y-109041952D01*
X121881478Y-109036319D01*
X121923443Y-109004466D01*
X121926867Y-109001867D01*
X122012881Y-108888548D01*
X122065253Y-108756273D01*
X122075500Y-108671594D01*
X122075500Y-108441621D01*
X122093952Y-108397073D01*
X122579590Y-107911434D01*
X122581495Y-107909608D01*
X122624993Y-107869610D01*
X122624995Y-107869608D01*
X122628156Y-107866701D01*
X122652660Y-107827179D01*
X122656011Y-107822305D01*
X122659224Y-107818072D01*
X122684112Y-107785284D01*
X122686796Y-107778506D01*
X122691718Y-107766076D01*
X122696748Y-107756074D01*
X122705373Y-107742163D01*
X122705374Y-107742161D01*
X122707635Y-107738514D01*
X122708832Y-107734392D01*
X122708834Y-107734389D01*
X122720605Y-107693872D01*
X122722527Y-107688258D01*
X122723917Y-107684747D01*
X122739635Y-107645047D01*
X122741793Y-107624507D01*
X122743950Y-107613516D01*
X122748794Y-107596846D01*
X122748795Y-107596843D01*
X122749715Y-107593675D01*
X122750500Y-107582985D01*
X122750500Y-107544978D01*
X122750845Y-107538393D01*
X122754952Y-107499317D01*
X122755401Y-107495046D01*
X122751382Y-107471284D01*
X122750500Y-107460778D01*
X122750500Y-107452465D01*
X125812144Y-107452465D01*
X125831923Y-107703778D01*
X125832696Y-107708659D01*
X125891544Y-107953777D01*
X125893070Y-107958473D01*
X125989538Y-108191368D01*
X125991783Y-108195773D01*
X126120857Y-108406405D01*
X126125359Y-108408698D01*
X126136028Y-108404762D01*
X127081928Y-107458862D01*
X127085599Y-107450000D01*
X127814401Y-107450000D01*
X127818072Y-107458862D01*
X128764884Y-108405674D01*
X128772397Y-108408786D01*
X128779764Y-108405390D01*
X128908217Y-108195773D01*
X128910462Y-108191368D01*
X129006930Y-107958473D01*
X129008456Y-107953777D01*
X129067304Y-107708659D01*
X129068077Y-107703778D01*
X129087856Y-107452465D01*
X130912144Y-107452465D01*
X130931923Y-107703778D01*
X130932696Y-107708659D01*
X130991544Y-107953777D01*
X130993070Y-107958473D01*
X131089538Y-108191368D01*
X131091783Y-108195773D01*
X131220857Y-108406405D01*
X131225359Y-108408698D01*
X131236028Y-108404762D01*
X132181928Y-107458862D01*
X132185599Y-107450000D01*
X132914401Y-107450000D01*
X132918072Y-107458862D01*
X133864884Y-108405674D01*
X133872397Y-108408786D01*
X133879764Y-108405390D01*
X134008217Y-108195773D01*
X134010462Y-108191368D01*
X134106930Y-107958473D01*
X134108456Y-107953777D01*
X134167304Y-107708659D01*
X134168077Y-107703778D01*
X134187856Y-107452465D01*
X134187856Y-107447535D01*
X134168077Y-107196222D01*
X134167304Y-107191341D01*
X134108456Y-106946223D01*
X134106930Y-106941527D01*
X134010462Y-106708632D01*
X134008217Y-106704227D01*
X133879143Y-106493595D01*
X133874641Y-106491302D01*
X133863972Y-106495238D01*
X132918072Y-107441138D01*
X132914401Y-107450000D01*
X132185599Y-107450000D01*
X132181928Y-107441138D01*
X131235116Y-106494326D01*
X131227603Y-106491214D01*
X131220236Y-106494610D01*
X131091783Y-106704227D01*
X131089538Y-106708632D01*
X130993070Y-106941527D01*
X130991544Y-106946223D01*
X130932696Y-107191341D01*
X130931923Y-107196222D01*
X130912144Y-107447535D01*
X130912144Y-107452465D01*
X129087856Y-107452465D01*
X129087856Y-107447535D01*
X129068077Y-107196222D01*
X129067304Y-107191341D01*
X129008456Y-106946223D01*
X129006930Y-106941527D01*
X128910462Y-106708632D01*
X128908217Y-106704227D01*
X128779143Y-106493595D01*
X128774641Y-106491302D01*
X128763972Y-106495238D01*
X127818072Y-107441138D01*
X127814401Y-107450000D01*
X127085599Y-107450000D01*
X127081928Y-107441138D01*
X126135116Y-106494326D01*
X126127603Y-106491214D01*
X126120236Y-106494610D01*
X125991783Y-106704227D01*
X125989538Y-106708632D01*
X125893070Y-106941527D01*
X125891544Y-106946223D01*
X125832696Y-107191341D01*
X125831923Y-107196222D01*
X125812144Y-107447535D01*
X125812144Y-107452465D01*
X122750500Y-107452465D01*
X122750500Y-106125359D01*
X126491302Y-106125359D01*
X126495238Y-106136028D01*
X127441138Y-107081928D01*
X127450000Y-107085599D01*
X127458862Y-107081928D01*
X128405674Y-106135116D01*
X128408786Y-106127603D01*
X128407752Y-106125359D01*
X131591302Y-106125359D01*
X131595238Y-106136028D01*
X132541138Y-107081928D01*
X132550000Y-107085599D01*
X132558862Y-107081928D01*
X133505674Y-106135116D01*
X133508786Y-106127603D01*
X133505390Y-106120236D01*
X133295773Y-105991783D01*
X133291368Y-105989538D01*
X133058473Y-105893070D01*
X133053777Y-105891544D01*
X132808659Y-105832696D01*
X132803778Y-105831923D01*
X132552465Y-105812144D01*
X132547535Y-105812144D01*
X132296222Y-105831923D01*
X132291341Y-105832696D01*
X132046223Y-105891544D01*
X132041527Y-105893070D01*
X131808632Y-105989538D01*
X131804227Y-105991783D01*
X131593595Y-106120857D01*
X131591302Y-106125359D01*
X128407752Y-106125359D01*
X128405390Y-106120236D01*
X128195773Y-105991783D01*
X128191368Y-105989538D01*
X127958473Y-105893070D01*
X127953777Y-105891544D01*
X127708659Y-105832696D01*
X127703778Y-105831923D01*
X127452465Y-105812144D01*
X127447535Y-105812144D01*
X127196222Y-105831923D01*
X127191341Y-105832696D01*
X126946223Y-105891544D01*
X126941527Y-105893070D01*
X126708632Y-105989538D01*
X126704227Y-105991783D01*
X126493595Y-106120857D01*
X126491302Y-106125359D01*
X122750500Y-106125359D01*
X122750500Y-105279121D01*
X122768952Y-105234573D01*
X122809574Y-105193951D01*
X122854122Y-105175499D01*
X123090828Y-105175499D01*
X123176528Y-105165129D01*
X123310395Y-105112128D01*
X123425078Y-105025078D01*
X123427363Y-105022068D01*
X123471741Y-105003686D01*
X123516289Y-105022138D01*
X123525313Y-105033535D01*
X123569714Y-105105286D01*
X123574231Y-105110985D01*
X123690020Y-105226572D01*
X123695725Y-105231078D01*
X123834998Y-105316926D01*
X123841586Y-105319998D01*
X123997077Y-105371573D01*
X124003768Y-105373008D01*
X124099696Y-105382836D01*
X124102905Y-105383000D01*
X124108467Y-105383000D01*
X124117329Y-105379329D01*
X124121000Y-105370467D01*
X124629000Y-105370467D01*
X124632671Y-105379329D01*
X124641533Y-105383000D01*
X124647078Y-105383000D01*
X124650317Y-105382833D01*
X124747492Y-105372749D01*
X124754183Y-105371304D01*
X124909581Y-105319460D01*
X124916169Y-105316374D01*
X125055290Y-105230283D01*
X125060985Y-105225769D01*
X125176572Y-105109980D01*
X125181078Y-105104275D01*
X125266926Y-104965002D01*
X125269998Y-104958414D01*
X125321573Y-104802923D01*
X125323008Y-104796232D01*
X125332836Y-104700304D01*
X125333000Y-104697095D01*
X125333000Y-104666533D01*
X125329329Y-104657671D01*
X125320467Y-104654000D01*
X124641533Y-104654000D01*
X124632671Y-104657671D01*
X124629000Y-104666533D01*
X124629000Y-105370467D01*
X124121000Y-105370467D01*
X124121000Y-104133467D01*
X124629000Y-104133467D01*
X124632671Y-104142329D01*
X124641533Y-104146000D01*
X125320467Y-104146000D01*
X125329329Y-104142329D01*
X125333000Y-104133467D01*
X125333000Y-104102922D01*
X125332833Y-104099683D01*
X125322749Y-104002508D01*
X125321304Y-103995817D01*
X125269460Y-103840419D01*
X125266374Y-103833831D01*
X125180283Y-103694710D01*
X125175769Y-103689015D01*
X125059980Y-103573428D01*
X125054275Y-103568922D01*
X124915002Y-103483074D01*
X124908422Y-103480005D01*
X124847450Y-103459782D01*
X124810977Y-103428243D01*
X124807487Y-103380151D01*
X124839026Y-103343678D01*
X124847346Y-103340223D01*
X124909581Y-103319460D01*
X124916169Y-103316374D01*
X125055290Y-103230283D01*
X125060985Y-103225769D01*
X125176572Y-103109980D01*
X125181078Y-103104275D01*
X125266926Y-102965002D01*
X125269998Y-102958414D01*
X125321573Y-102802923D01*
X125323008Y-102796232D01*
X125332836Y-102700304D01*
X125333000Y-102697095D01*
X125333000Y-102666533D01*
X125329329Y-102657671D01*
X125320467Y-102654000D01*
X124641533Y-102654000D01*
X124632671Y-102657671D01*
X124629000Y-102666533D01*
X124629000Y-103370470D01*
X124631246Y-103375893D01*
X124631246Y-103424107D01*
X124629000Y-103429530D01*
X124629000Y-104133467D01*
X124121000Y-104133467D01*
X124121000Y-103429530D01*
X124118754Y-103424107D01*
X124118754Y-103375893D01*
X124121000Y-103370470D01*
X124121000Y-102133467D01*
X124629000Y-102133467D01*
X124632671Y-102142329D01*
X124641533Y-102146000D01*
X125320467Y-102146000D01*
X125329329Y-102142329D01*
X125333000Y-102133467D01*
X125333000Y-102102922D01*
X125332833Y-102099683D01*
X125322749Y-102002508D01*
X125321304Y-101995817D01*
X125269460Y-101840419D01*
X125266374Y-101833831D01*
X125180283Y-101694710D01*
X125175769Y-101689015D01*
X125059980Y-101573428D01*
X125054275Y-101568922D01*
X124915002Y-101483074D01*
X124908414Y-101480002D01*
X124752923Y-101428427D01*
X124746232Y-101426992D01*
X124650304Y-101417164D01*
X124647095Y-101417000D01*
X124641533Y-101417000D01*
X124632671Y-101420671D01*
X124629000Y-101429533D01*
X124629000Y-102133467D01*
X124121000Y-102133467D01*
X124121000Y-101429533D01*
X124117329Y-101420671D01*
X124108467Y-101417000D01*
X124102922Y-101417000D01*
X124099683Y-101417167D01*
X124002508Y-101427251D01*
X123995817Y-101428696D01*
X123840419Y-101480540D01*
X123833831Y-101483626D01*
X123694710Y-101569717D01*
X123689015Y-101574231D01*
X123573428Y-101690020D01*
X123568922Y-101695725D01*
X123525373Y-101766374D01*
X123486289Y-101794614D01*
X123438685Y-101786946D01*
X123427485Y-101778093D01*
X123425078Y-101774922D01*
X123400410Y-101756198D01*
X123376083Y-101714567D01*
X123375500Y-101706017D01*
X123375500Y-101479121D01*
X123393952Y-101434573D01*
X123784573Y-101043952D01*
X123829121Y-101025500D01*
X124342772Y-101025500D01*
X124392503Y-101019482D01*
X124428534Y-101015122D01*
X124428537Y-101015121D01*
X124432547Y-101014636D01*
X124572783Y-100959113D01*
X124692922Y-100867922D01*
X124784113Y-100747783D01*
X124833565Y-100622880D01*
X124867120Y-100588254D01*
X124915333Y-100587496D01*
X124949959Y-100621051D01*
X124953720Y-100632767D01*
X124954057Y-100634328D01*
X125007747Y-100795258D01*
X125010833Y-100801846D01*
X125099989Y-100945919D01*
X125104511Y-100951625D01*
X125224414Y-101071320D01*
X125230128Y-101075833D01*
X125374361Y-101164738D01*
X125380949Y-101167810D01*
X125541973Y-101221220D01*
X125548664Y-101222655D01*
X125648037Y-101232836D01*
X125651246Y-101233000D01*
X125683467Y-101233000D01*
X125692329Y-101229329D01*
X125696000Y-101220467D01*
X125696000Y-101220466D01*
X126204000Y-101220466D01*
X126207671Y-101229328D01*
X126216533Y-101232999D01*
X126248736Y-101232999D01*
X126251975Y-101232832D01*
X126352639Y-101222387D01*
X126359330Y-101220942D01*
X126520258Y-101167253D01*
X126526846Y-101164167D01*
X126670919Y-101075011D01*
X126676625Y-101070489D01*
X126796320Y-100950586D01*
X126800833Y-100944872D01*
X126889738Y-100800639D01*
X126892810Y-100794051D01*
X126946220Y-100633027D01*
X126947655Y-100626336D01*
X126957836Y-100526963D01*
X126958000Y-100523754D01*
X126958000Y-100266533D01*
X126954329Y-100257671D01*
X126945467Y-100254000D01*
X126216533Y-100254000D01*
X126207671Y-100257671D01*
X126204000Y-100266533D01*
X126204000Y-101220466D01*
X125696000Y-101220466D01*
X125696000Y-99733467D01*
X126204000Y-99733467D01*
X126207671Y-99742329D01*
X126216533Y-99746000D01*
X126945466Y-99746000D01*
X126954328Y-99742329D01*
X126957999Y-99733467D01*
X126957999Y-99476264D01*
X126957832Y-99473025D01*
X126947387Y-99372361D01*
X126945942Y-99365670D01*
X126892253Y-99204742D01*
X126889167Y-99198154D01*
X126800011Y-99054081D01*
X126795489Y-99048375D01*
X126675586Y-98928680D01*
X126669872Y-98924167D01*
X126525639Y-98835262D01*
X126519051Y-98832190D01*
X126358027Y-98778780D01*
X126351336Y-98777345D01*
X126251963Y-98767164D01*
X126248754Y-98767000D01*
X126216533Y-98767000D01*
X126207671Y-98770671D01*
X126204000Y-98779533D01*
X126204000Y-99733467D01*
X125696000Y-99733467D01*
X125696000Y-98779534D01*
X125692329Y-98770672D01*
X125683467Y-98767001D01*
X125651264Y-98767001D01*
X125648025Y-98767168D01*
X125547361Y-98777613D01*
X125540670Y-98779058D01*
X125379742Y-98832747D01*
X125373149Y-98835835D01*
X125347790Y-98851528D01*
X125300199Y-98859279D01*
X125261067Y-98831107D01*
X125253316Y-98783516D01*
X125270091Y-98753408D01*
X125511756Y-98511744D01*
X126054548Y-97968952D01*
X126099096Y-97950500D01*
X128639846Y-97950500D01*
X128641692Y-97950280D01*
X128641697Y-97950280D01*
X128654674Y-97948735D01*
X128666046Y-97947382D01*
X128768353Y-97901939D01*
X128847441Y-97822713D01*
X128892706Y-97720327D01*
X128893255Y-97715619D01*
X128895488Y-97696468D01*
X128895488Y-97696461D01*
X128895700Y-97694646D01*
X128895700Y-97251199D01*
X131513203Y-97251199D01*
X131515324Y-97256319D01*
X131566347Y-97292046D01*
X131571089Y-97294783D01*
X131765599Y-97385485D01*
X131770756Y-97387362D01*
X131978051Y-97442906D01*
X131983463Y-97443860D01*
X132197257Y-97462565D01*
X132202743Y-97462565D01*
X132416537Y-97443860D01*
X132421949Y-97442906D01*
X132629244Y-97387362D01*
X132634401Y-97385485D01*
X132828911Y-97294783D01*
X132833653Y-97292046D01*
X132881722Y-97258387D01*
X132886876Y-97250297D01*
X132885677Y-97244888D01*
X132208862Y-96568072D01*
X132200000Y-96564401D01*
X132191138Y-96568072D01*
X131516874Y-97242337D01*
X131513203Y-97251199D01*
X128895700Y-97251199D01*
X128895700Y-96202743D01*
X130937435Y-96202743D01*
X130956140Y-96416537D01*
X130957094Y-96421949D01*
X131012638Y-96629244D01*
X131014515Y-96634401D01*
X131105217Y-96828910D01*
X131107954Y-96833652D01*
X131141613Y-96881722D01*
X131149703Y-96886876D01*
X131155112Y-96885677D01*
X131831928Y-96208862D01*
X131835599Y-96200000D01*
X132564401Y-96200000D01*
X132568072Y-96208862D01*
X133242337Y-96883126D01*
X133251199Y-96886797D01*
X133256319Y-96884676D01*
X133292046Y-96833652D01*
X133294783Y-96828910D01*
X133385485Y-96634401D01*
X133387362Y-96629244D01*
X133442906Y-96421949D01*
X133443860Y-96416537D01*
X133462565Y-96202743D01*
X133462565Y-96197257D01*
X133443860Y-95983463D01*
X133442906Y-95978051D01*
X133387362Y-95770756D01*
X133385485Y-95765599D01*
X133294783Y-95571090D01*
X133292046Y-95566348D01*
X133258387Y-95518278D01*
X133250297Y-95513124D01*
X133244888Y-95514323D01*
X132568072Y-96191138D01*
X132564401Y-96200000D01*
X131835599Y-96200000D01*
X131831928Y-96191138D01*
X131157663Y-95516874D01*
X131148801Y-95513203D01*
X131143681Y-95515324D01*
X131107954Y-95566348D01*
X131105217Y-95571090D01*
X131014515Y-95765599D01*
X131012638Y-95770756D01*
X130957094Y-95978051D01*
X130956140Y-95983463D01*
X130937435Y-96197257D01*
X130937435Y-96202743D01*
X128895700Y-96202743D01*
X128895700Y-95605354D01*
X128892582Y-95579154D01*
X128863253Y-95513124D01*
X128849499Y-95482160D01*
X128847139Y-95476847D01*
X128767913Y-95397759D01*
X128665527Y-95352494D01*
X128660820Y-95351945D01*
X128660819Y-95351945D01*
X128641668Y-95349712D01*
X128641661Y-95349712D01*
X128639846Y-95349500D01*
X127658700Y-95349500D01*
X127614152Y-95331048D01*
X127595700Y-95286500D01*
X127595700Y-95149703D01*
X131513124Y-95149703D01*
X131514323Y-95155112D01*
X132191138Y-95831928D01*
X132200000Y-95835599D01*
X132208862Y-95831928D01*
X132883126Y-95157663D01*
X132886797Y-95148801D01*
X132884676Y-95143681D01*
X132833653Y-95107954D01*
X132828911Y-95105217D01*
X132634401Y-95014515D01*
X132629244Y-95012638D01*
X132421949Y-94957094D01*
X132416537Y-94956140D01*
X132202743Y-94937435D01*
X132197257Y-94937435D01*
X131983463Y-94956140D01*
X131978051Y-94957094D01*
X131770756Y-95012638D01*
X131765599Y-95014515D01*
X131571090Y-95105217D01*
X131566348Y-95107954D01*
X131518278Y-95141613D01*
X131513124Y-95149703D01*
X127595700Y-95149703D01*
X127595700Y-92688500D01*
X127614152Y-92643952D01*
X127658700Y-92625500D01*
X131199060Y-92625500D01*
X131243608Y-92643952D01*
X131255093Y-92659703D01*
X131312712Y-92771818D01*
X131314624Y-92774230D01*
X131314627Y-92774235D01*
X131422806Y-92910723D01*
X131440677Y-92933270D01*
X131443021Y-92935265D01*
X131443022Y-92935266D01*
X131501820Y-92985307D01*
X131597564Y-93066791D01*
X131643828Y-93092647D01*
X131774708Y-93165794D01*
X131774711Y-93165795D01*
X131777398Y-93167297D01*
X131878744Y-93200226D01*
X131970398Y-93230007D01*
X131970401Y-93230008D01*
X131973329Y-93230959D01*
X131976390Y-93231324D01*
X132174837Y-93254987D01*
X132174842Y-93254987D01*
X132177894Y-93255351D01*
X132180962Y-93255115D01*
X132180966Y-93255115D01*
X132380225Y-93239783D01*
X132380229Y-93239782D01*
X132383300Y-93239546D01*
X132386268Y-93238717D01*
X132386270Y-93238717D01*
X132482512Y-93211846D01*
X132581725Y-93184145D01*
X132765610Y-93091258D01*
X132795002Y-93068295D01*
X132925525Y-92966319D01*
X132927951Y-92964424D01*
X133062564Y-92808472D01*
X133153581Y-92648254D01*
X133162800Y-92632025D01*
X133164323Y-92629344D01*
X133165602Y-92625500D01*
X133228380Y-92436783D01*
X133228381Y-92436780D01*
X133229351Y-92433863D01*
X133230318Y-92426210D01*
X133254951Y-92231218D01*
X133254951Y-92231212D01*
X133255171Y-92229474D01*
X133255583Y-92200000D01*
X133235480Y-91994970D01*
X133183730Y-91823568D01*
X133176827Y-91800703D01*
X133176827Y-91800702D01*
X133175935Y-91797749D01*
X133079218Y-91615849D01*
X133069253Y-91603630D01*
X133003171Y-91522606D01*
X132949011Y-91456200D01*
X132910887Y-91424661D01*
X132792647Y-91326844D01*
X132792645Y-91326843D01*
X132790275Y-91324882D01*
X132609055Y-91226897D01*
X132606120Y-91225989D01*
X132606119Y-91225988D01*
X132415197Y-91166888D01*
X132412254Y-91165977D01*
X132334147Y-91157768D01*
X132210427Y-91144764D01*
X132210423Y-91144764D01*
X132207369Y-91144443D01*
X132069082Y-91157028D01*
X132005267Y-91162835D01*
X132005265Y-91162835D01*
X132002203Y-91163114D01*
X131804572Y-91221280D01*
X131713287Y-91269003D01*
X131624727Y-91315301D01*
X131624724Y-91315303D01*
X131622002Y-91316726D01*
X131619603Y-91318655D01*
X131498336Y-91416156D01*
X131461447Y-91445815D01*
X131459470Y-91448171D01*
X131332025Y-91600054D01*
X131329024Y-91603630D01*
X131327539Y-91606330D01*
X131327537Y-91606334D01*
X131253037Y-91741850D01*
X131215406Y-91771998D01*
X131197830Y-91774500D01*
X130187885Y-91774500D01*
X130143337Y-91756048D01*
X130124885Y-91711500D01*
X130137472Y-91673718D01*
X130192680Y-91600054D01*
X130196947Y-91592260D01*
X130245066Y-91463905D01*
X130246878Y-91456282D01*
X130253017Y-91399776D01*
X130253200Y-91396388D01*
X130253200Y-90616533D01*
X130249529Y-90607671D01*
X130240667Y-90604000D01*
X128804200Y-90604000D01*
X128759652Y-90585548D01*
X128741200Y-90541000D01*
X128741200Y-90083467D01*
X129249200Y-90083467D01*
X129252871Y-90092329D01*
X129261733Y-90096000D01*
X130240666Y-90096000D01*
X130249528Y-90092329D01*
X130253199Y-90083467D01*
X130253199Y-89303614D01*
X130253016Y-89300223D01*
X130246878Y-89243717D01*
X130245066Y-89236096D01*
X130196947Y-89107740D01*
X130192680Y-89099946D01*
X130110799Y-88990692D01*
X130104508Y-88984401D01*
X129995254Y-88902520D01*
X129987460Y-88898253D01*
X129859105Y-88850134D01*
X129851482Y-88848322D01*
X129794976Y-88842183D01*
X129791588Y-88842000D01*
X129261733Y-88842000D01*
X129252871Y-88845671D01*
X129249200Y-88854533D01*
X129249200Y-90083467D01*
X128741200Y-90083467D01*
X128741200Y-88854534D01*
X128737529Y-88845672D01*
X128728667Y-88842001D01*
X128198814Y-88842001D01*
X128195423Y-88842184D01*
X128138917Y-88848322D01*
X128131296Y-88850134D01*
X128002940Y-88898253D01*
X127995146Y-88902520D01*
X127885892Y-88984401D01*
X127879601Y-88990692D01*
X127797720Y-89099946D01*
X127793453Y-89107740D01*
X127782688Y-89136455D01*
X127749773Y-89171690D01*
X127701582Y-89173331D01*
X127679188Y-89158927D01*
X127622029Y-89101868D01*
X127622030Y-89101868D01*
X127617913Y-89097759D01*
X127595701Y-89087939D01*
X127519861Y-89054410D01*
X127515527Y-89052494D01*
X127510820Y-89051945D01*
X127510819Y-89051945D01*
X127491668Y-89049712D01*
X127491661Y-89049712D01*
X127489846Y-89049500D01*
X125900554Y-89049500D01*
X125898708Y-89049720D01*
X125898703Y-89049720D01*
X125887891Y-89051007D01*
X125874354Y-89052618D01*
X125772047Y-89098061D01*
X125692959Y-89177287D01*
X125647694Y-89279673D01*
X125647145Y-89284380D01*
X125647145Y-89284381D01*
X125644916Y-89303503D01*
X125644700Y-89305354D01*
X125644700Y-91394646D01*
X125644920Y-91396492D01*
X125644920Y-91396497D01*
X125646465Y-91409474D01*
X125647818Y-91420846D01*
X125649736Y-91425164D01*
X125690703Y-91517393D01*
X125693261Y-91523153D01*
X125697375Y-91527259D01*
X125697375Y-91527260D01*
X125772487Y-91602241D01*
X125771255Y-91603475D01*
X125793624Y-91637781D01*
X125794700Y-91649376D01*
X125794700Y-95286500D01*
X125776248Y-95331048D01*
X125731700Y-95349500D01*
X124750554Y-95349500D01*
X124748708Y-95349720D01*
X124748703Y-95349720D01*
X124735726Y-95351265D01*
X124724354Y-95352618D01*
X124622047Y-95398061D01*
X124542959Y-95477287D01*
X124540607Y-95482607D01*
X124501489Y-95571090D01*
X124497694Y-95579673D01*
X124497145Y-95584380D01*
X124497145Y-95584381D01*
X124494916Y-95603503D01*
X124494700Y-95605354D01*
X124494700Y-96955704D01*
X124476248Y-97000252D01*
X123466867Y-98009634D01*
X123459355Y-98016050D01*
X123444129Y-98027112D01*
X123441921Y-98029564D01*
X123441919Y-98029566D01*
X123397686Y-98078692D01*
X123395416Y-98081085D01*
X123379881Y-98096620D01*
X123378843Y-98097901D01*
X123378841Y-98097904D01*
X123366062Y-98113685D01*
X123363920Y-98116193D01*
X123319677Y-98165329D01*
X123319675Y-98165332D01*
X123317467Y-98167784D01*
X123315818Y-98170640D01*
X123308059Y-98184079D01*
X123302461Y-98192223D01*
X123292697Y-98204281D01*
X123292693Y-98204288D01*
X123290617Y-98206851D01*
X123289119Y-98209791D01*
X123289117Y-98209794D01*
X123259105Y-98268695D01*
X123257532Y-98271592D01*
X123224471Y-98328857D01*
X123224469Y-98328862D01*
X123222821Y-98331716D01*
X123219534Y-98341833D01*
X123217007Y-98349609D01*
X123213225Y-98358741D01*
X123206180Y-98372567D01*
X123206178Y-98372571D01*
X123204680Y-98375512D01*
X123203824Y-98378707D01*
X123186711Y-98442572D01*
X123185783Y-98445708D01*
X123164326Y-98511744D01*
X123163981Y-98515030D01*
X123162359Y-98530459D01*
X123160557Y-98540179D01*
X123155687Y-98558354D01*
X123155514Y-98561647D01*
X123155514Y-98561650D01*
X123152054Y-98627684D01*
X123151795Y-98630972D01*
X123149500Y-98652808D01*
X123149500Y-98674763D01*
X123149414Y-98678060D01*
X123145781Y-98747388D01*
X123146735Y-98753408D01*
X123148724Y-98765968D01*
X123149500Y-98775824D01*
X123149500Y-100047192D01*
X123149673Y-100048837D01*
X123153471Y-100084978D01*
X123139776Y-100131211D01*
X123135364Y-100136111D01*
X122445411Y-100826065D01*
X122443506Y-100827891D01*
X122400007Y-100867890D01*
X122400005Y-100867892D01*
X122396844Y-100870799D01*
X122394582Y-100874448D01*
X122394579Y-100874451D01*
X122372348Y-100910307D01*
X122368995Y-100915187D01*
X122340888Y-100952217D01*
X122338158Y-100959113D01*
X122333286Y-100971418D01*
X122328253Y-100981426D01*
X122317365Y-100998986D01*
X122316168Y-101003106D01*
X122316165Y-101003113D01*
X122304395Y-101043626D01*
X122302473Y-101049241D01*
X122285364Y-101092453D01*
X122284916Y-101096718D01*
X122284915Y-101096721D01*
X122283205Y-101112994D01*
X122281049Y-101123983D01*
X122275285Y-101143825D01*
X122274500Y-101154515D01*
X122274500Y-101192520D01*
X122274155Y-101199104D01*
X122269599Y-101242454D01*
X122270315Y-101246687D01*
X122270315Y-101246688D01*
X122273618Y-101266216D01*
X122274500Y-101276722D01*
X122274500Y-101706017D01*
X122256048Y-101750565D01*
X122249591Y-101756197D01*
X122224922Y-101774922D01*
X122137872Y-101889605D01*
X122084871Y-102023472D01*
X122074500Y-102109171D01*
X122074501Y-102690828D01*
X122084871Y-102776528D01*
X122137872Y-102910395D01*
X122224922Y-103025078D01*
X122228346Y-103027677D01*
X122249590Y-103043802D01*
X122273917Y-103085433D01*
X122274500Y-103093983D01*
X122274500Y-103706017D01*
X122256048Y-103750565D01*
X122249591Y-103756197D01*
X122224922Y-103774922D01*
X122137872Y-103889605D01*
X122084871Y-104023472D01*
X122074500Y-104109171D01*
X122074500Y-104345880D01*
X122056048Y-104390428D01*
X121820411Y-104626065D01*
X121818506Y-104627891D01*
X121775007Y-104667890D01*
X121775005Y-104667892D01*
X121771844Y-104670799D01*
X121769582Y-104674448D01*
X121769579Y-104674451D01*
X121747348Y-104710307D01*
X121743995Y-104715187D01*
X121715888Y-104752217D01*
X121714305Y-104756216D01*
X121708286Y-104771418D01*
X121703253Y-104781426D01*
X121692365Y-104798986D01*
X121691168Y-104803106D01*
X121691165Y-104803113D01*
X121679395Y-104843626D01*
X121677473Y-104849241D01*
X121660364Y-104892453D01*
X121659916Y-104896718D01*
X121659915Y-104896721D01*
X121658205Y-104912994D01*
X121656049Y-104923983D01*
X121650285Y-104943825D01*
X121649500Y-104954515D01*
X121649500Y-104992520D01*
X121649155Y-104999104D01*
X121644599Y-105042454D01*
X121645315Y-105046687D01*
X121645315Y-105046688D01*
X121648618Y-105066216D01*
X121649500Y-105076722D01*
X121649500Y-107258379D01*
X121631048Y-107302927D01*
X121277928Y-107656048D01*
X121233380Y-107674500D01*
X121003406Y-107674500D01*
X120918727Y-107684747D01*
X120786452Y-107737119D01*
X120673133Y-107823133D01*
X120587119Y-107936452D01*
X120534747Y-108068727D01*
X120524500Y-108153406D01*
X120524500Y-108671594D01*
X120534747Y-108756273D01*
X120587119Y-108888548D01*
X120673133Y-109001867D01*
X120676557Y-109004466D01*
X120718522Y-109036319D01*
X120742849Y-109077950D01*
X120730613Y-109124590D01*
X120688982Y-109148917D01*
X120680432Y-109149500D01*
X119700607Y-109149500D01*
X119656098Y-109131086D01*
X119626832Y-109101871D01*
X119622713Y-109097759D01*
X119520327Y-109052494D01*
X119515620Y-109051945D01*
X119515619Y-109051945D01*
X119496468Y-109049712D01*
X119496461Y-109049712D01*
X119494646Y-109049500D01*
X118505354Y-109049500D01*
X118503508Y-109049720D01*
X118503503Y-109049720D01*
X118490526Y-109051265D01*
X118479154Y-109052618D01*
X118474836Y-109054536D01*
X118402875Y-109086500D01*
X118376847Y-109098061D01*
X118372741Y-109102175D01*
X118372740Y-109102175D01*
X118337672Y-109137304D01*
X118297759Y-109177287D01*
X118295407Y-109182607D01*
X118254865Y-109274311D01*
X118252494Y-109279673D01*
X118251945Y-109284380D01*
X118251945Y-109284381D01*
X118249716Y-109303503D01*
X118249500Y-109305354D01*
X118249500Y-109574268D01*
X118243597Y-109597949D01*
X118244625Y-109598360D01*
X118176000Y-109769935D01*
X118145819Y-109952244D01*
X116849176Y-109952244D01*
X116844510Y-109863219D01*
X116795438Y-109685064D01*
X116757772Y-109613624D01*
X116750500Y-109584241D01*
X116750500Y-109305354D01*
X116747382Y-109279154D01*
X116723106Y-109224500D01*
X116704299Y-109182160D01*
X116701939Y-109176847D01*
X116622713Y-109097759D01*
X116520327Y-109052494D01*
X116515620Y-109051945D01*
X116515619Y-109051945D01*
X116496468Y-109049712D01*
X116496461Y-109049712D01*
X116494646Y-109049500D01*
X115505354Y-109049500D01*
X115503508Y-109049720D01*
X115503503Y-109049720D01*
X115490526Y-109051265D01*
X115479154Y-109052618D01*
X115474836Y-109054536D01*
X115402875Y-109086500D01*
X115376847Y-109098061D01*
X115372741Y-109102174D01*
X115372737Y-109102177D01*
X115343957Y-109131008D01*
X115299370Y-109149500D01*
X113153836Y-109149500D01*
X113152154Y-109149683D01*
X113152149Y-109149683D01*
X113019684Y-109164073D01*
X113019680Y-109164074D01*
X113016291Y-109164442D01*
X112855370Y-109218598D01*
X112847612Y-109221209D01*
X112827517Y-109224500D01*
X112554976Y-109224501D01*
X112509172Y-109224501D01*
X112423472Y-109234871D01*
X112289605Y-109287872D01*
X112174922Y-109374922D01*
X112087872Y-109489605D01*
X112083541Y-109500545D01*
X112058576Y-109563599D01*
X112025021Y-109598225D01*
X111976808Y-109598983D01*
X111941424Y-109563599D01*
X111916459Y-109500545D01*
X111912128Y-109489605D01*
X111825078Y-109374922D01*
X111710395Y-109287872D01*
X111576528Y-109234871D01*
X111572518Y-109234386D01*
X111572515Y-109234385D01*
X111538643Y-109230286D01*
X111490829Y-109224500D01*
X111450001Y-109224500D01*
X111163383Y-109224501D01*
X111136758Y-109218598D01*
X111078796Y-109191569D01*
X111078794Y-109191568D01*
X111075703Y-109190127D01*
X111072376Y-109189383D01*
X111072375Y-109189383D01*
X110897882Y-109150380D01*
X110897881Y-109150380D01*
X110895363Y-109149817D01*
X110889693Y-109149500D01*
X107998570Y-109149500D01*
X107954022Y-109131048D01*
X107935570Y-109086500D01*
X107954022Y-109041952D01*
X107983863Y-109025241D01*
X108053777Y-109008456D01*
X108058473Y-109006930D01*
X108291368Y-108910462D01*
X108295773Y-108908217D01*
X108506405Y-108779143D01*
X108508698Y-108774641D01*
X108504762Y-108763972D01*
X107558862Y-107818072D01*
X107550000Y-107814401D01*
X107541138Y-107818072D01*
X106594326Y-108764884D01*
X106591214Y-108772397D01*
X106594610Y-108779764D01*
X106804227Y-108908217D01*
X106808632Y-108910462D01*
X107041527Y-109006930D01*
X107046223Y-109008456D01*
X107116137Y-109025241D01*
X107155146Y-109053583D01*
X107162689Y-109101207D01*
X107134347Y-109140216D01*
X107101430Y-109149500D01*
X106085098Y-109149500D01*
X106040550Y-109131048D01*
X106039106Y-109129472D01*
X106038495Y-109128599D01*
X105871401Y-108961505D01*
X105869155Y-108959932D01*
X105869151Y-108959929D01*
X105680080Y-108827540D01*
X105680076Y-108827538D01*
X105677830Y-108825965D01*
X105463663Y-108726097D01*
X105235408Y-108664937D01*
X105000000Y-108644341D01*
X104764592Y-108664937D01*
X104536337Y-108726097D01*
X104322171Y-108825965D01*
X104319925Y-108827538D01*
X104319921Y-108827540D01*
X104130849Y-108959929D01*
X104130845Y-108959932D01*
X104128599Y-108961505D01*
X103961505Y-109128599D01*
X103959932Y-109130845D01*
X103959929Y-109130849D01*
X103836432Y-109307222D01*
X103825965Y-109322171D01*
X103726097Y-109536337D01*
X103664937Y-109764592D01*
X103644341Y-110000000D01*
X100300500Y-110000000D01*
X100300500Y-108772397D01*
X101491214Y-108772397D01*
X101494610Y-108779764D01*
X101704227Y-108908217D01*
X101708632Y-108910462D01*
X101941527Y-109006930D01*
X101946223Y-109008456D01*
X102191341Y-109067304D01*
X102196222Y-109068077D01*
X102447535Y-109087856D01*
X102452465Y-109087856D01*
X102703778Y-109068077D01*
X102708659Y-109067304D01*
X102953777Y-109008456D01*
X102958473Y-109006930D01*
X103191368Y-108910462D01*
X103195773Y-108908217D01*
X103406405Y-108779143D01*
X103408698Y-108774641D01*
X103404762Y-108763972D01*
X102458862Y-107818072D01*
X102450000Y-107814401D01*
X102441138Y-107818072D01*
X101494326Y-108764884D01*
X101491214Y-108772397D01*
X100300500Y-108772397D01*
X100300500Y-107452465D01*
X100812144Y-107452465D01*
X100831923Y-107703778D01*
X100832696Y-107708659D01*
X100891544Y-107953777D01*
X100893070Y-107958473D01*
X100989538Y-108191368D01*
X100991783Y-108195773D01*
X101120857Y-108406405D01*
X101125359Y-108408698D01*
X101136028Y-108404762D01*
X102081928Y-107458862D01*
X102085599Y-107450000D01*
X102814401Y-107450000D01*
X102818072Y-107458862D01*
X103764884Y-108405674D01*
X103772397Y-108408786D01*
X103779764Y-108405390D01*
X103908217Y-108195773D01*
X103910462Y-108191368D01*
X104006930Y-107958473D01*
X104008456Y-107953777D01*
X104067304Y-107708659D01*
X104068077Y-107703778D01*
X104087856Y-107452465D01*
X105912144Y-107452465D01*
X105931923Y-107703778D01*
X105932696Y-107708659D01*
X105991544Y-107953777D01*
X105993070Y-107958473D01*
X106089538Y-108191368D01*
X106091783Y-108195773D01*
X106220857Y-108406405D01*
X106225359Y-108408698D01*
X106236028Y-108404762D01*
X107181928Y-107458862D01*
X107185599Y-107450000D01*
X107914401Y-107450000D01*
X107918072Y-107458862D01*
X108864884Y-108405674D01*
X108872397Y-108408786D01*
X108879764Y-108405390D01*
X109008217Y-108195773D01*
X109010462Y-108191368D01*
X109106930Y-107958473D01*
X109108456Y-107953777D01*
X109167304Y-107708659D01*
X109168077Y-107703778D01*
X109187856Y-107452465D01*
X109187856Y-107447535D01*
X109168077Y-107196222D01*
X109167304Y-107191341D01*
X109108456Y-106946223D01*
X109106930Y-106941527D01*
X109010462Y-106708632D01*
X109008217Y-106704227D01*
X108879143Y-106493595D01*
X108874641Y-106491302D01*
X108863972Y-106495238D01*
X107918072Y-107441138D01*
X107914401Y-107450000D01*
X107185599Y-107450000D01*
X107181928Y-107441138D01*
X106235116Y-106494326D01*
X106227603Y-106491214D01*
X106220236Y-106494610D01*
X106091783Y-106704227D01*
X106089538Y-106708632D01*
X105993070Y-106941527D01*
X105991544Y-106946223D01*
X105932696Y-107191341D01*
X105931923Y-107196222D01*
X105912144Y-107447535D01*
X105912144Y-107452465D01*
X104087856Y-107452465D01*
X104087856Y-107447535D01*
X104068077Y-107196222D01*
X104067304Y-107191341D01*
X104008456Y-106946223D01*
X104006930Y-106941527D01*
X103910462Y-106708632D01*
X103908217Y-106704227D01*
X103779143Y-106493595D01*
X103774641Y-106491302D01*
X103763972Y-106495238D01*
X102818072Y-107441138D01*
X102814401Y-107450000D01*
X102085599Y-107450000D01*
X102081928Y-107441138D01*
X101135116Y-106494326D01*
X101127603Y-106491214D01*
X101120236Y-106494610D01*
X100991783Y-106704227D01*
X100989538Y-106708632D01*
X100893070Y-106941527D01*
X100891544Y-106946223D01*
X100832696Y-107191341D01*
X100831923Y-107196222D01*
X100812144Y-107447535D01*
X100812144Y-107452465D01*
X100300500Y-107452465D01*
X100300500Y-106125359D01*
X101491302Y-106125359D01*
X101495238Y-106136028D01*
X102441138Y-107081928D01*
X102450000Y-107085599D01*
X102458862Y-107081928D01*
X103405674Y-106135116D01*
X103408786Y-106127603D01*
X103407752Y-106125359D01*
X106591302Y-106125359D01*
X106595238Y-106136028D01*
X107541138Y-107081928D01*
X107550000Y-107085599D01*
X107558862Y-107081928D01*
X108505674Y-106135116D01*
X108508786Y-106127603D01*
X108505390Y-106120236D01*
X108295773Y-105991783D01*
X108291368Y-105989538D01*
X108058473Y-105893070D01*
X108053777Y-105891544D01*
X107808659Y-105832696D01*
X107803778Y-105831923D01*
X107552465Y-105812144D01*
X107547535Y-105812144D01*
X107296222Y-105831923D01*
X107291341Y-105832696D01*
X107046223Y-105891544D01*
X107041527Y-105893070D01*
X106808632Y-105989538D01*
X106804227Y-105991783D01*
X106593595Y-106120857D01*
X106591302Y-106125359D01*
X103407752Y-106125359D01*
X103405390Y-106120236D01*
X103195773Y-105991783D01*
X103191368Y-105989538D01*
X102958473Y-105893070D01*
X102953777Y-105891544D01*
X102708659Y-105832696D01*
X102703778Y-105831923D01*
X102452465Y-105812144D01*
X102447535Y-105812144D01*
X102196222Y-105831923D01*
X102191341Y-105832696D01*
X101946223Y-105891544D01*
X101941527Y-105893070D01*
X101708632Y-105989538D01*
X101704227Y-105991783D01*
X101493595Y-106120857D01*
X101491302Y-106125359D01*
X100300500Y-106125359D01*
X100300500Y-99801446D01*
X114999500Y-99801446D01*
X115002618Y-99827646D01*
X115004536Y-99831964D01*
X115045503Y-99924193D01*
X115048061Y-99929953D01*
X115127287Y-100009041D01*
X115132607Y-100011393D01*
X115217303Y-100048837D01*
X115229673Y-100054306D01*
X115234380Y-100054855D01*
X115234381Y-100054855D01*
X115253532Y-100057088D01*
X115253539Y-100057088D01*
X115255354Y-100057300D01*
X119744646Y-100057300D01*
X119746492Y-100057080D01*
X119746497Y-100057080D01*
X119759474Y-100055535D01*
X119770846Y-100054182D01*
X119873153Y-100008739D01*
X119952241Y-99929513D01*
X119997506Y-99827127D01*
X119998055Y-99822419D01*
X120000288Y-99803268D01*
X120000288Y-99803261D01*
X120000500Y-99801446D01*
X120000500Y-97912154D01*
X119997382Y-97885954D01*
X119985179Y-97858482D01*
X119954299Y-97788960D01*
X119951939Y-97783647D01*
X119872713Y-97704559D01*
X119770327Y-97659294D01*
X119765620Y-97658745D01*
X119765619Y-97658745D01*
X119746468Y-97656512D01*
X119746461Y-97656512D01*
X119744646Y-97656300D01*
X118519295Y-97656300D01*
X118474747Y-97637848D01*
X118456295Y-97593300D01*
X118474747Y-97548752D01*
X119263706Y-96759794D01*
X120104548Y-95918952D01*
X120149096Y-95900500D01*
X122424176Y-95900500D01*
X122434029Y-95901276D01*
X122452612Y-95904219D01*
X122455899Y-95904047D01*
X122455903Y-95904047D01*
X122521940Y-95900586D01*
X122525237Y-95900500D01*
X122547192Y-95900500D01*
X122548838Y-95900327D01*
X122569028Y-95898205D01*
X122572316Y-95897946D01*
X122638350Y-95894486D01*
X122638353Y-95894486D01*
X122641646Y-95894313D01*
X122659821Y-95889443D01*
X122669541Y-95887641D01*
X122688256Y-95885674D01*
X122754292Y-95864217D01*
X122757428Y-95863289D01*
X122821293Y-95846176D01*
X122821292Y-95846176D01*
X122824488Y-95845320D01*
X122827429Y-95843822D01*
X122827433Y-95843820D01*
X122841259Y-95836775D01*
X122850391Y-95832993D01*
X122851352Y-95832681D01*
X122868284Y-95827179D01*
X122871138Y-95825531D01*
X122871143Y-95825529D01*
X122928408Y-95792468D01*
X122931305Y-95790895D01*
X122990206Y-95760883D01*
X122990209Y-95760881D01*
X122993149Y-95759383D01*
X122995712Y-95757307D01*
X122995719Y-95757303D01*
X123007777Y-95747539D01*
X123015921Y-95741941D01*
X123029360Y-95734182D01*
X123032216Y-95732533D01*
X123034668Y-95730325D01*
X123034671Y-95730323D01*
X123083807Y-95686080D01*
X123086315Y-95683938D01*
X123102096Y-95671159D01*
X123102099Y-95671157D01*
X123103380Y-95670119D01*
X123118915Y-95654584D01*
X123121308Y-95652314D01*
X123170434Y-95608081D01*
X123170436Y-95608079D01*
X123172888Y-95605871D01*
X123183950Y-95590645D01*
X123190366Y-95583133D01*
X124978337Y-93795163D01*
X124985855Y-93788743D01*
X124998399Y-93779629D01*
X125001071Y-93777688D01*
X125004660Y-93773703D01*
X125047505Y-93726118D01*
X125049775Y-93723725D01*
X125065320Y-93708180D01*
X125079166Y-93691081D01*
X125081256Y-93688634D01*
X125127733Y-93637016D01*
X125129383Y-93634158D01*
X125129386Y-93634154D01*
X125137138Y-93620727D01*
X125142737Y-93612580D01*
X125152507Y-93600515D01*
X125152511Y-93600509D01*
X125154584Y-93597949D01*
X125175236Y-93557416D01*
X125186108Y-93536078D01*
X125187683Y-93533178D01*
X125220725Y-93475949D01*
X125220725Y-93475948D01*
X125222379Y-93473084D01*
X125228196Y-93455183D01*
X125231977Y-93446056D01*
X125239019Y-93432234D01*
X125239020Y-93432230D01*
X125240520Y-93429287D01*
X125247219Y-93404289D01*
X125258483Y-93362250D01*
X125259419Y-93359088D01*
X125279854Y-93296197D01*
X125279855Y-93296192D01*
X125280874Y-93293056D01*
X125282841Y-93274341D01*
X125284643Y-93264620D01*
X125288658Y-93249636D01*
X125288658Y-93249635D01*
X125289513Y-93246445D01*
X125290306Y-93231324D01*
X125293146Y-93177117D01*
X125293405Y-93173829D01*
X125295527Y-93153638D01*
X125295700Y-93151992D01*
X125295700Y-93130036D01*
X125295786Y-93126739D01*
X125299247Y-93060703D01*
X125299247Y-93060699D01*
X125299419Y-93057412D01*
X125296476Y-93038829D01*
X125295700Y-93028976D01*
X125295700Y-91649362D01*
X125314152Y-91604814D01*
X125316757Y-91602648D01*
X125318353Y-91601939D01*
X125397441Y-91522713D01*
X125426810Y-91456282D01*
X125440790Y-91424661D01*
X125442706Y-91420327D01*
X125445102Y-91399776D01*
X125445488Y-91396468D01*
X125445488Y-91396461D01*
X125445700Y-91394646D01*
X125445700Y-89305354D01*
X125445090Y-89300223D01*
X125443140Y-89283844D01*
X125442582Y-89279154D01*
X125430379Y-89251682D01*
X125399499Y-89182160D01*
X125397139Y-89176847D01*
X125317913Y-89097759D01*
X125319145Y-89096525D01*
X125296776Y-89062219D01*
X125295700Y-89050624D01*
X125295700Y-88971024D01*
X125296476Y-88961168D01*
X125298903Y-88945845D01*
X125299419Y-88942588D01*
X125297212Y-88900466D01*
X125295786Y-88873267D01*
X125295700Y-88869970D01*
X125295700Y-88848008D01*
X125293404Y-88826162D01*
X125293145Y-88822874D01*
X125289685Y-88756850D01*
X125289685Y-88756848D01*
X125289512Y-88753554D01*
X125284643Y-88735383D01*
X125282841Y-88725662D01*
X125281219Y-88710228D01*
X125280874Y-88706944D01*
X125279854Y-88703804D01*
X125279852Y-88703796D01*
X125259419Y-88640910D01*
X125258482Y-88637747D01*
X125241377Y-88573909D01*
X125241376Y-88573906D01*
X125240520Y-88570712D01*
X125239022Y-88567771D01*
X125239020Y-88567767D01*
X125231975Y-88553941D01*
X125228193Y-88544809D01*
X125226473Y-88539516D01*
X125222379Y-88526916D01*
X125220731Y-88524062D01*
X125220729Y-88524057D01*
X125187668Y-88466792D01*
X125186095Y-88463895D01*
X125156083Y-88404994D01*
X125156081Y-88404991D01*
X125154583Y-88402051D01*
X125152507Y-88399488D01*
X125152503Y-88399481D01*
X125142739Y-88387423D01*
X125137141Y-88379279D01*
X125129382Y-88365840D01*
X125127733Y-88362984D01*
X125125525Y-88360532D01*
X125125523Y-88360529D01*
X125081280Y-88311393D01*
X125079138Y-88308885D01*
X125066359Y-88293104D01*
X125066357Y-88293101D01*
X125065319Y-88291820D01*
X125049784Y-88276285D01*
X125047514Y-88273892D01*
X125003281Y-88224766D01*
X125003279Y-88224764D01*
X125001071Y-88222312D01*
X124985845Y-88211250D01*
X124978333Y-88204834D01*
X124886152Y-88112653D01*
X124867700Y-88068105D01*
X124867700Y-87768479D01*
X124886152Y-87723931D01*
X124930700Y-87705479D01*
X124975248Y-87723931D01*
X124984272Y-87735327D01*
X125017189Y-87788519D01*
X125021711Y-87794225D01*
X125141614Y-87913920D01*
X125147328Y-87918433D01*
X125291561Y-88007338D01*
X125298149Y-88010410D01*
X125459173Y-88063820D01*
X125465864Y-88065255D01*
X125565237Y-88075436D01*
X125568446Y-88075600D01*
X125600667Y-88075600D01*
X125609529Y-88071929D01*
X125613200Y-88063067D01*
X125613200Y-88063066D01*
X126121200Y-88063066D01*
X126124871Y-88071928D01*
X126133733Y-88075599D01*
X126165936Y-88075599D01*
X126169175Y-88075432D01*
X126269839Y-88064987D01*
X126276530Y-88063542D01*
X126437458Y-88009853D01*
X126444046Y-88006767D01*
X126588119Y-87917611D01*
X126593825Y-87913089D01*
X126713520Y-87793186D01*
X126718033Y-87787472D01*
X126806938Y-87643239D01*
X126810010Y-87636651D01*
X126863420Y-87475627D01*
X126864855Y-87468936D01*
X126868456Y-87433789D01*
X131095996Y-87433789D01*
X131104913Y-87671295D01*
X131153719Y-87903904D01*
X131241020Y-88124963D01*
X131242401Y-88127238D01*
X131242403Y-88127243D01*
X131343051Y-88293104D01*
X131364319Y-88328153D01*
X131520090Y-88507664D01*
X131522150Y-88509353D01*
X131522151Y-88509354D01*
X131547395Y-88530053D01*
X131703880Y-88658362D01*
X131706197Y-88659681D01*
X131706200Y-88659683D01*
X131908115Y-88774620D01*
X131908120Y-88774622D01*
X131910433Y-88775939D01*
X132065833Y-88832347D01*
X132126957Y-88854534D01*
X132133844Y-88857034D01*
X132136465Y-88857508D01*
X132136469Y-88857509D01*
X132365694Y-88898959D01*
X132365698Y-88898959D01*
X132367725Y-88899326D01*
X132389381Y-88900347D01*
X132391897Y-88900466D01*
X132391899Y-88900466D01*
X132392619Y-88900500D01*
X132559680Y-88900500D01*
X132649716Y-88892860D01*
X132734165Y-88885695D01*
X132734170Y-88885694D01*
X132736823Y-88885469D01*
X132966874Y-88825760D01*
X133183576Y-88728143D01*
X133380732Y-88595409D01*
X133433775Y-88544809D01*
X133474821Y-88505653D01*
X133552705Y-88431355D01*
X133694579Y-88240670D01*
X133802295Y-88028807D01*
X133872775Y-87801824D01*
X133874539Y-87788519D01*
X133903654Y-87568853D01*
X133903654Y-87568851D01*
X133904004Y-87566211D01*
X133895087Y-87328705D01*
X133862715Y-87174421D01*
X133846829Y-87098707D01*
X133846828Y-87098705D01*
X133846281Y-87096096D01*
X133758980Y-86875037D01*
X133757599Y-86872762D01*
X133757597Y-86872757D01*
X133637064Y-86674126D01*
X133637064Y-86674125D01*
X133635681Y-86671847D01*
X133479910Y-86492336D01*
X133296120Y-86341638D01*
X133293803Y-86340319D01*
X133293800Y-86340317D01*
X133091885Y-86225380D01*
X133091880Y-86225378D01*
X133089567Y-86224061D01*
X132866156Y-86142966D01*
X132863535Y-86142492D01*
X132863531Y-86142491D01*
X132634306Y-86101041D01*
X132634302Y-86101041D01*
X132632275Y-86100674D01*
X132609777Y-86099613D01*
X132608103Y-86099534D01*
X132608101Y-86099534D01*
X132607381Y-86099500D01*
X132440320Y-86099500D01*
X132350284Y-86107140D01*
X132265835Y-86114305D01*
X132265830Y-86114306D01*
X132263177Y-86114531D01*
X132033126Y-86174240D01*
X131816424Y-86271857D01*
X131619268Y-86404591D01*
X131617343Y-86406428D01*
X131617341Y-86406429D01*
X131594617Y-86428107D01*
X131447295Y-86568645D01*
X131305421Y-86759330D01*
X131197705Y-86971193D01*
X131196913Y-86973745D01*
X131154874Y-87109133D01*
X131127225Y-87198176D01*
X131095996Y-87433789D01*
X126868456Y-87433789D01*
X126875036Y-87369563D01*
X126875200Y-87366354D01*
X126875200Y-87109133D01*
X126871529Y-87100271D01*
X126862667Y-87096600D01*
X126133733Y-87096600D01*
X126124871Y-87100271D01*
X126121200Y-87109133D01*
X126121200Y-88063066D01*
X125613200Y-88063066D01*
X125613200Y-86576067D01*
X126121200Y-86576067D01*
X126124871Y-86584929D01*
X126133733Y-86588600D01*
X126862666Y-86588600D01*
X126871528Y-86584929D01*
X126875199Y-86576067D01*
X126875199Y-86318864D01*
X126875032Y-86315625D01*
X126864587Y-86214961D01*
X126863142Y-86208270D01*
X126809453Y-86047342D01*
X126806367Y-86040754D01*
X126717211Y-85896681D01*
X126712689Y-85890975D01*
X126592786Y-85771280D01*
X126587072Y-85766767D01*
X126442839Y-85677862D01*
X126436251Y-85674790D01*
X126275227Y-85621380D01*
X126268536Y-85619945D01*
X126169163Y-85609764D01*
X126165954Y-85609600D01*
X126133733Y-85609600D01*
X126124871Y-85613271D01*
X126121200Y-85622133D01*
X126121200Y-86576067D01*
X125613200Y-86576067D01*
X125613200Y-85622134D01*
X125609529Y-85613272D01*
X125600667Y-85609601D01*
X125568464Y-85609601D01*
X125565225Y-85609768D01*
X125464561Y-85620213D01*
X125457870Y-85621658D01*
X125296942Y-85675347D01*
X125290354Y-85678433D01*
X125146281Y-85767589D01*
X125140575Y-85772111D01*
X125020880Y-85892014D01*
X125016367Y-85897728D01*
X124927462Y-86041961D01*
X124924390Y-86048549D01*
X124870981Y-86209570D01*
X124870945Y-86209738D01*
X124870907Y-86209793D01*
X124869896Y-86212841D01*
X124869008Y-86212546D01*
X124843566Y-86249429D01*
X124796140Y-86258135D01*
X124756449Y-86230756D01*
X124750768Y-86219726D01*
X124703632Y-86100674D01*
X124701313Y-86094817D01*
X124610122Y-85974678D01*
X124489983Y-85883487D01*
X124349747Y-85827964D01*
X124345737Y-85827479D01*
X124345734Y-85827478D01*
X124309703Y-85823118D01*
X124259972Y-85817100D01*
X123674428Y-85817100D01*
X123624697Y-85823118D01*
X123588666Y-85827478D01*
X123588663Y-85827479D01*
X123584653Y-85827964D01*
X123444417Y-85883487D01*
X123324278Y-85974678D01*
X123233087Y-86094817D01*
X123177564Y-86235053D01*
X123166700Y-86324828D01*
X123166700Y-86411227D01*
X123158261Y-86442724D01*
X123140021Y-86474316D01*
X123139002Y-86477454D01*
X123139000Y-86477457D01*
X123082546Y-86651203D01*
X123082545Y-86651208D01*
X123081526Y-86654344D01*
X123066700Y-86795408D01*
X123066700Y-88391376D01*
X123065924Y-88401229D01*
X123062981Y-88419812D01*
X123063153Y-88423099D01*
X123063153Y-88423103D01*
X123066614Y-88489140D01*
X123066700Y-88492437D01*
X123066700Y-88514392D01*
X123066873Y-88516038D01*
X123068995Y-88536228D01*
X123069254Y-88539516D01*
X123072087Y-88593571D01*
X123072887Y-88608846D01*
X123073742Y-88612037D01*
X123077757Y-88627021D01*
X123079559Y-88636740D01*
X123081526Y-88655456D01*
X123102983Y-88721492D01*
X123103911Y-88724628D01*
X123121880Y-88791688D01*
X123123378Y-88794629D01*
X123123380Y-88794633D01*
X123130425Y-88808459D01*
X123134207Y-88817591D01*
X123140021Y-88835484D01*
X123141669Y-88838338D01*
X123141671Y-88838343D01*
X123174732Y-88895608D01*
X123176305Y-88898505D01*
X123206317Y-88957406D01*
X123207817Y-88960349D01*
X123209893Y-88962912D01*
X123209897Y-88962919D01*
X123219661Y-88974977D01*
X123225258Y-88983119D01*
X123234667Y-88999416D01*
X123236875Y-89001868D01*
X123236877Y-89001871D01*
X123281120Y-89051007D01*
X123283262Y-89053515D01*
X123297081Y-89070580D01*
X123312616Y-89086115D01*
X123314886Y-89088508D01*
X123361329Y-89140088D01*
X123362204Y-89140723D01*
X123382700Y-89183698D01*
X123377406Y-89212466D01*
X123347694Y-89279673D01*
X123347145Y-89284380D01*
X123347145Y-89284381D01*
X123344916Y-89303503D01*
X123344700Y-89305354D01*
X123344700Y-91394646D01*
X123344920Y-91396492D01*
X123344920Y-91396497D01*
X123346465Y-91409474D01*
X123347818Y-91420846D01*
X123349736Y-91425164D01*
X123390703Y-91517393D01*
X123393261Y-91523153D01*
X123397375Y-91527259D01*
X123397375Y-91527260D01*
X123472487Y-91602241D01*
X123471255Y-91603475D01*
X123493624Y-91637781D01*
X123494700Y-91649376D01*
X123494700Y-92705704D01*
X123476248Y-92750252D01*
X122145453Y-94081048D01*
X122100905Y-94099500D01*
X119825832Y-94099500D01*
X119815976Y-94098724D01*
X119800647Y-94096296D01*
X119797389Y-94095780D01*
X119794103Y-94095952D01*
X119794098Y-94095952D01*
X119728049Y-94099414D01*
X119724752Y-94099500D01*
X119703799Y-94099500D01*
X119659251Y-94081048D01*
X119640799Y-94036500D01*
X119656615Y-93994755D01*
X119659934Y-93991004D01*
X119799384Y-93803575D01*
X119802186Y-93799056D01*
X119908057Y-93590822D01*
X119910062Y-93585887D01*
X119979335Y-93362793D01*
X119980478Y-93357595D01*
X119985033Y-93323223D01*
X119982559Y-93313956D01*
X119977103Y-93310800D01*
X117766533Y-93310800D01*
X117757671Y-93314471D01*
X117754000Y-93323333D01*
X117754000Y-94452267D01*
X117757671Y-94461129D01*
X117766533Y-94464800D01*
X118658672Y-94464800D01*
X118661328Y-94464687D01*
X118835430Y-94449915D01*
X118840673Y-94449019D01*
X118868907Y-94441690D01*
X118916662Y-94448358D01*
X118945714Y-94486841D01*
X118939046Y-94534596D01*
X118929283Y-94547217D01*
X116916867Y-96559634D01*
X116909355Y-96566050D01*
X116894129Y-96577112D01*
X116891921Y-96579564D01*
X116891919Y-96579566D01*
X116847686Y-96628692D01*
X116845416Y-96631085D01*
X116829881Y-96646620D01*
X116828843Y-96647901D01*
X116828841Y-96647904D01*
X116816062Y-96663685D01*
X116813920Y-96666193D01*
X116769677Y-96715329D01*
X116769675Y-96715332D01*
X116767467Y-96717784D01*
X116765818Y-96720640D01*
X116758059Y-96734079D01*
X116752461Y-96742223D01*
X116742697Y-96754281D01*
X116742693Y-96754288D01*
X116740617Y-96756851D01*
X116739119Y-96759791D01*
X116739117Y-96759794D01*
X116709105Y-96818695D01*
X116707532Y-96821592D01*
X116674471Y-96878857D01*
X116674469Y-96878862D01*
X116672821Y-96881716D01*
X116667319Y-96898648D01*
X116667007Y-96899609D01*
X116663225Y-96908741D01*
X116656180Y-96922567D01*
X116656178Y-96922571D01*
X116654680Y-96925512D01*
X116653824Y-96928707D01*
X116636711Y-96992572D01*
X116635783Y-96995708D01*
X116614326Y-97061744D01*
X116613981Y-97065030D01*
X116612359Y-97080459D01*
X116610557Y-97090179D01*
X116605687Y-97108354D01*
X116605514Y-97111647D01*
X116605514Y-97111650D01*
X116602054Y-97177684D01*
X116601795Y-97180972D01*
X116599500Y-97202808D01*
X116599500Y-97224763D01*
X116599414Y-97228060D01*
X116596061Y-97292046D01*
X116595781Y-97297388D01*
X116596297Y-97300645D01*
X116598724Y-97315968D01*
X116599500Y-97325824D01*
X116599500Y-97593300D01*
X116581048Y-97637848D01*
X116536500Y-97656300D01*
X115255354Y-97656300D01*
X115253508Y-97656520D01*
X115253503Y-97656520D01*
X115240526Y-97658065D01*
X115229154Y-97659418D01*
X115126847Y-97704861D01*
X115047759Y-97784087D01*
X115045407Y-97789407D01*
X115023023Y-97840039D01*
X115002494Y-97886473D01*
X115001945Y-97891180D01*
X115001945Y-97891181D01*
X114999716Y-97910303D01*
X114999500Y-97912154D01*
X114999500Y-99801446D01*
X100300500Y-99801446D01*
X100300500Y-97015472D01*
X111292000Y-97015472D01*
X111292113Y-97018128D01*
X111306885Y-97192230D01*
X111307782Y-97197476D01*
X111366469Y-97423584D01*
X111368239Y-97428611D01*
X111464185Y-97641605D01*
X111466768Y-97646246D01*
X111597238Y-97840039D01*
X111600563Y-97844175D01*
X111761819Y-98013215D01*
X111765797Y-98016734D01*
X111953225Y-98156184D01*
X111957744Y-98158986D01*
X112165978Y-98264857D01*
X112170913Y-98266862D01*
X112394007Y-98336135D01*
X112399205Y-98337278D01*
X112433577Y-98341833D01*
X112442844Y-98339359D01*
X112446000Y-98333903D01*
X112446000Y-98329664D01*
X112954000Y-98329664D01*
X112957671Y-98338526D01*
X112962319Y-98340452D01*
X113103456Y-98310838D01*
X113108546Y-98309311D01*
X113325831Y-98223501D01*
X113330590Y-98221139D01*
X113530309Y-98099946D01*
X113534600Y-98096817D01*
X113711049Y-97943703D01*
X113714750Y-97939897D01*
X113862871Y-97759250D01*
X113865886Y-97754864D01*
X113981453Y-97551842D01*
X113983682Y-97547016D01*
X114063390Y-97327427D01*
X114064776Y-97322292D01*
X114106453Y-97091815D01*
X114106917Y-97087719D01*
X114107966Y-97065483D01*
X114108000Y-97064039D01*
X114108000Y-96123333D01*
X114104329Y-96114471D01*
X114095467Y-96110800D01*
X112966533Y-96110800D01*
X112957671Y-96114471D01*
X112954000Y-96123333D01*
X112954000Y-98329664D01*
X112446000Y-98329664D01*
X112446000Y-96123333D01*
X112442329Y-96114471D01*
X112433467Y-96110800D01*
X111304533Y-96110800D01*
X111295671Y-96114471D01*
X111292000Y-96123333D01*
X111292000Y-97015472D01*
X100300500Y-97015472D01*
X100300500Y-95590267D01*
X111292000Y-95590267D01*
X111295671Y-95599129D01*
X111304533Y-95602800D01*
X112433467Y-95602800D01*
X112442329Y-95599129D01*
X112446000Y-95590267D01*
X112954000Y-95590267D01*
X112957671Y-95599129D01*
X112966533Y-95602800D01*
X114095467Y-95602800D01*
X114104329Y-95599129D01*
X114108000Y-95590267D01*
X114108000Y-94698128D01*
X114107887Y-94695472D01*
X114093115Y-94521370D01*
X114092218Y-94516124D01*
X114033531Y-94290016D01*
X114031761Y-94284989D01*
X113935815Y-94071995D01*
X113933232Y-94067354D01*
X113802762Y-93873561D01*
X113799437Y-93869425D01*
X113638181Y-93700385D01*
X113634203Y-93696866D01*
X113446775Y-93557416D01*
X113442256Y-93554614D01*
X113234022Y-93448743D01*
X113229087Y-93446738D01*
X113005993Y-93377465D01*
X113000795Y-93376322D01*
X112966423Y-93371767D01*
X112957156Y-93374241D01*
X112954000Y-93379697D01*
X112954000Y-95590267D01*
X112446000Y-95590267D01*
X112446000Y-93383936D01*
X112442329Y-93375074D01*
X112437681Y-93373148D01*
X112296544Y-93402762D01*
X112291454Y-93404289D01*
X112074169Y-93490099D01*
X112069410Y-93492461D01*
X111869691Y-93613654D01*
X111865400Y-93616783D01*
X111688951Y-93769897D01*
X111685250Y-93773703D01*
X111537129Y-93954350D01*
X111534114Y-93958736D01*
X111418547Y-94161758D01*
X111416318Y-94166584D01*
X111336610Y-94386173D01*
X111335224Y-94391308D01*
X111293547Y-94621785D01*
X111293083Y-94625881D01*
X111292034Y-94648117D01*
X111292000Y-94649561D01*
X111292000Y-95590267D01*
X100300500Y-95590267D01*
X100300500Y-93319119D01*
X115016348Y-93319119D01*
X115045962Y-93460256D01*
X115047489Y-93465346D01*
X115133299Y-93682631D01*
X115135661Y-93687390D01*
X115256854Y-93887109D01*
X115259983Y-93891400D01*
X115413097Y-94067849D01*
X115416903Y-94071550D01*
X115597550Y-94219671D01*
X115601936Y-94222686D01*
X115804958Y-94338253D01*
X115809784Y-94340482D01*
X116029373Y-94420190D01*
X116034508Y-94421576D01*
X116264985Y-94463253D01*
X116269081Y-94463717D01*
X116291317Y-94464766D01*
X116292761Y-94464800D01*
X117233467Y-94464800D01*
X117242329Y-94461129D01*
X117246000Y-94452267D01*
X117246000Y-93323333D01*
X117242329Y-93314471D01*
X117233467Y-93310800D01*
X115027136Y-93310800D01*
X115018274Y-93314471D01*
X115016348Y-93319119D01*
X100300500Y-93319119D01*
X100300500Y-92790377D01*
X115014967Y-92790377D01*
X115017441Y-92799644D01*
X115022897Y-92802800D01*
X117233467Y-92802800D01*
X117242329Y-92799129D01*
X117246000Y-92790267D01*
X117754000Y-92790267D01*
X117757671Y-92799129D01*
X117766533Y-92802800D01*
X119972864Y-92802800D01*
X119981726Y-92799129D01*
X119983652Y-92794481D01*
X119954038Y-92653344D01*
X119952511Y-92648254D01*
X119866701Y-92430969D01*
X119864339Y-92426210D01*
X119743146Y-92226491D01*
X119740017Y-92222200D01*
X119586903Y-92045751D01*
X119583097Y-92042050D01*
X119402450Y-91893929D01*
X119398064Y-91890914D01*
X119195042Y-91775347D01*
X119190216Y-91773118D01*
X118970627Y-91693410D01*
X118965492Y-91692024D01*
X118735015Y-91650347D01*
X118730919Y-91649883D01*
X118708683Y-91648834D01*
X118707239Y-91648800D01*
X117766533Y-91648800D01*
X117757671Y-91652471D01*
X117754000Y-91661333D01*
X117754000Y-92790267D01*
X117246000Y-92790267D01*
X117246000Y-91661333D01*
X117242329Y-91652471D01*
X117233467Y-91648800D01*
X116341328Y-91648800D01*
X116338672Y-91648913D01*
X116164570Y-91663685D01*
X116159324Y-91664582D01*
X115933216Y-91723269D01*
X115928189Y-91725039D01*
X115715195Y-91820985D01*
X115710554Y-91823568D01*
X115516761Y-91954038D01*
X115512625Y-91957363D01*
X115343585Y-92118619D01*
X115340066Y-92122597D01*
X115200616Y-92310025D01*
X115197814Y-92314544D01*
X115091943Y-92522778D01*
X115089938Y-92527713D01*
X115020665Y-92750807D01*
X115019522Y-92756005D01*
X115014967Y-92790377D01*
X100300500Y-92790377D01*
X100300500Y-87433789D01*
X101095996Y-87433789D01*
X101104913Y-87671295D01*
X101153719Y-87903904D01*
X101241020Y-88124963D01*
X101242401Y-88127238D01*
X101242403Y-88127243D01*
X101343051Y-88293104D01*
X101364319Y-88328153D01*
X101520090Y-88507664D01*
X101522150Y-88509353D01*
X101522151Y-88509354D01*
X101547395Y-88530053D01*
X101703880Y-88658362D01*
X101706197Y-88659681D01*
X101706200Y-88659683D01*
X101908115Y-88774620D01*
X101908120Y-88774622D01*
X101910433Y-88775939D01*
X102065833Y-88832347D01*
X102126957Y-88854534D01*
X102133844Y-88857034D01*
X102136465Y-88857508D01*
X102136469Y-88857509D01*
X102365694Y-88898959D01*
X102365698Y-88898959D01*
X102367725Y-88899326D01*
X102389381Y-88900347D01*
X102391897Y-88900466D01*
X102391899Y-88900466D01*
X102392619Y-88900500D01*
X102559680Y-88900500D01*
X102649716Y-88892860D01*
X102734165Y-88885695D01*
X102734170Y-88885694D01*
X102736823Y-88885469D01*
X102966874Y-88825760D01*
X103183576Y-88728143D01*
X103380732Y-88595409D01*
X103433775Y-88544809D01*
X103474821Y-88505653D01*
X103552705Y-88431355D01*
X103694579Y-88240670D01*
X103802295Y-88028807D01*
X103872775Y-87801824D01*
X103874539Y-87788519D01*
X103903654Y-87568853D01*
X103903654Y-87568851D01*
X103904004Y-87566211D01*
X103895087Y-87328705D01*
X103862715Y-87174421D01*
X103846829Y-87098707D01*
X103846828Y-87098705D01*
X103846281Y-87096096D01*
X103758980Y-86875037D01*
X103757599Y-86872762D01*
X103757597Y-86872757D01*
X103637064Y-86674126D01*
X103637064Y-86674125D01*
X103635681Y-86671847D01*
X103479910Y-86492336D01*
X103296120Y-86341638D01*
X103293803Y-86340319D01*
X103293800Y-86340317D01*
X103091885Y-86225380D01*
X103091880Y-86225378D01*
X103089567Y-86224061D01*
X102866156Y-86142966D01*
X102863535Y-86142492D01*
X102863531Y-86142491D01*
X102634306Y-86101041D01*
X102634302Y-86101041D01*
X102632275Y-86100674D01*
X102609777Y-86099613D01*
X102608103Y-86099534D01*
X102608101Y-86099534D01*
X102607381Y-86099500D01*
X102440320Y-86099500D01*
X102350284Y-86107140D01*
X102265835Y-86114305D01*
X102265830Y-86114306D01*
X102263177Y-86114531D01*
X102033126Y-86174240D01*
X101816424Y-86271857D01*
X101619268Y-86404591D01*
X101617343Y-86406428D01*
X101617341Y-86406429D01*
X101594617Y-86428107D01*
X101447295Y-86568645D01*
X101305421Y-86759330D01*
X101197705Y-86971193D01*
X101196913Y-86973745D01*
X101154874Y-87109133D01*
X101127225Y-87198176D01*
X101095996Y-87433789D01*
X100300500Y-87433789D01*
X100300500Y-85363500D01*
X100318952Y-85318952D01*
X100363500Y-85300500D01*
X134636500Y-85300500D01*
X134681048Y-85318952D01*
G37*
%TD.AperFunction*%
M02*
