%FSLAX45Y45*%
G04 Gerber Fmt 4.5, Leading zero omitted, Abs format (unit mm)*
G04 Created by KiCad (PCBNEW (6.0.6-0)) date 2023-01-17 17:26:09*
%MOMM*%
%LPD*%
G01*
G04 APERTURE LIST*
%TA.AperFunction,Profile*%
%ADD10C,0.200000*%
%TD*%
%ADD11C,0.200000*%
%ADD12C,0.040000*%
%ADD13C,0.080000*%
%ADD14C,0.140000*%
%ADD15C,0.150000*%
G04 APERTURE END LIST*
D10*
X13500000Y-8500000D02*
X10000000Y-8500000D01*
X10000000Y-12000000D02*
X13500000Y-12000000D01*
X10000000Y-8500000D02*
X10000000Y-12000000D01*
X13500000Y-12000000D02*
X13500000Y-8500000D01*
D11*
D12*
X10920000Y-10840000D02*
X10960000Y-10880000D01*
X10960000Y-10840000D02*
X10920000Y-10880000D01*
X10920000Y-11120000D02*
X10960000Y-11160000D01*
X10960000Y-11120000D02*
X10920000Y-11160000D01*
X11020000Y-10840000D02*
X11060000Y-10880000D01*
X11060000Y-10840000D02*
X11020000Y-10880000D01*
X11020000Y-11120000D02*
X11060000Y-11160000D01*
X11060000Y-11120000D02*
X11020000Y-11160000D01*
X11055000Y-9355000D02*
X11095000Y-9395000D01*
X11095000Y-9355000D02*
X11055000Y-9395000D01*
X11055000Y-9480000D02*
X11095000Y-9520000D01*
X11095000Y-9480000D02*
X11055000Y-9520000D01*
X11055000Y-9605000D02*
X11095000Y-9645000D01*
X11095000Y-9605000D02*
X11055000Y-9645000D01*
X11055000Y-9730000D02*
X11095000Y-9770000D01*
X11095000Y-9730000D02*
X11055000Y-9770000D01*
X11120000Y-10840000D02*
X11160000Y-10880000D01*
X11160000Y-10840000D02*
X11120000Y-10880000D01*
X11120000Y-11120000D02*
X11160000Y-11160000D01*
X11160000Y-11120000D02*
X11120000Y-11160000D01*
X11220000Y-10840000D02*
X11260000Y-10880000D01*
X11260000Y-10840000D02*
X11220000Y-10880000D01*
X11220000Y-11120000D02*
X11260000Y-11160000D01*
X11260000Y-11120000D02*
X11220000Y-11160000D01*
X11320000Y-10840000D02*
X11360000Y-10880000D01*
X11360000Y-10840000D02*
X11320000Y-10880000D01*
X11320000Y-11120000D02*
X11360000Y-11160000D01*
X11360000Y-11120000D02*
X11320000Y-11160000D01*
X11420000Y-10840000D02*
X11460000Y-10880000D01*
X11460000Y-10840000D02*
X11420000Y-10880000D01*
X11420000Y-11120000D02*
X11460000Y-11160000D01*
X11460000Y-11120000D02*
X11420000Y-11160000D01*
X11520000Y-11120000D02*
X11560000Y-11160000D01*
X11560000Y-11120000D02*
X11520000Y-11160000D01*
X11555000Y-9080000D02*
X11595000Y-9120000D01*
X11595000Y-9080000D02*
X11555000Y-9120000D01*
X11580000Y-10500000D02*
X11620000Y-10540000D01*
X11620000Y-10500000D02*
X11580000Y-10540000D01*
X11580000Y-10600000D02*
X11620000Y-10640000D01*
X11620000Y-10600000D02*
X11580000Y-10640000D01*
X11580000Y-10720000D02*
X11620000Y-10760000D01*
X11620000Y-10720000D02*
X11580000Y-10760000D01*
X11580000Y-10820000D02*
X11620000Y-10860000D01*
X11620000Y-10820000D02*
X11580000Y-10860000D01*
X11620000Y-11120000D02*
X11660000Y-11160000D01*
X11660000Y-11120000D02*
X11620000Y-11160000D01*
X11680000Y-10500000D02*
X11720000Y-10540000D01*
X11720000Y-10500000D02*
X11680000Y-10540000D01*
X11720000Y-11120000D02*
X11760000Y-11160000D01*
X11760000Y-11120000D02*
X11720000Y-11160000D01*
X11730000Y-9080000D02*
X11770000Y-9120000D01*
X11770000Y-9080000D02*
X11730000Y-9120000D01*
X11780000Y-10500000D02*
X11820000Y-10540000D01*
X11820000Y-10500000D02*
X11780000Y-10540000D01*
X11820000Y-11120000D02*
X11860000Y-11160000D01*
X11860000Y-11120000D02*
X11820000Y-11160000D01*
X11880000Y-10500000D02*
X11920000Y-10540000D01*
X11920000Y-10500000D02*
X11880000Y-10540000D01*
X11880000Y-10600000D02*
X11920000Y-10640000D01*
X11920000Y-10600000D02*
X11880000Y-10640000D01*
X11880000Y-10720000D02*
X11920000Y-10760000D01*
X11920000Y-10720000D02*
X11880000Y-10760000D01*
X11880000Y-10820000D02*
X11920000Y-10860000D01*
X11920000Y-10820000D02*
X11880000Y-10860000D01*
X11905000Y-9080000D02*
X11945000Y-9120000D01*
X11945000Y-9080000D02*
X11905000Y-9120000D01*
X11920000Y-11120000D02*
X11960000Y-11160000D01*
X11960000Y-11120000D02*
X11920000Y-11160000D01*
X11980000Y-10820000D02*
X12020000Y-10860000D01*
X12020000Y-10820000D02*
X11980000Y-10860000D01*
X12020000Y-11120000D02*
X12060000Y-11160000D01*
X12060000Y-11120000D02*
X12020000Y-11160000D01*
X12082500Y-10685000D02*
X12122500Y-10725000D01*
X12122500Y-10685000D02*
X12082500Y-10725000D01*
X12100000Y-9940000D02*
X12140000Y-9980000D01*
X12140000Y-9940000D02*
X12100000Y-9980000D01*
X12100000Y-10095000D02*
X12140000Y-10135000D01*
X12140000Y-10095000D02*
X12100000Y-10135000D01*
X12100000Y-10262500D02*
X12140000Y-10302500D01*
X12140000Y-10262500D02*
X12100000Y-10302500D01*
X12120000Y-11120000D02*
X12160000Y-11160000D01*
X12160000Y-11120000D02*
X12120000Y-11160000D01*
X12220000Y-11120000D02*
X12260000Y-11160000D01*
X12260000Y-11120000D02*
X12220000Y-11160000D01*
X12240000Y-10840000D02*
X12280000Y-10880000D01*
X12280000Y-10840000D02*
X12240000Y-10880000D01*
X12312500Y-10692500D02*
X12352500Y-10732500D01*
X12352500Y-10692500D02*
X12312500Y-10732500D01*
X12320000Y-11120000D02*
X12360000Y-11160000D01*
X12360000Y-11120000D02*
X12320000Y-11160000D01*
X12340000Y-10840000D02*
X12380000Y-10880000D01*
X12380000Y-10840000D02*
X12340000Y-10880000D01*
X12355000Y-9630000D02*
X12395000Y-9670000D01*
X12395000Y-9630000D02*
X12355000Y-9670000D01*
X12380000Y-10580000D02*
X12420000Y-10620000D01*
X12420000Y-10580000D02*
X12380000Y-10620000D01*
X12420000Y-11120000D02*
X12460000Y-11160000D01*
X12460000Y-11120000D02*
X12420000Y-11160000D01*
X12440000Y-10840000D02*
X12480000Y-10880000D01*
X12480000Y-10840000D02*
X12440000Y-10880000D01*
X12462500Y-9460000D02*
X12502500Y-9500000D01*
X12502500Y-9460000D02*
X12462500Y-9500000D01*
X12500000Y-10560000D02*
X12540000Y-10600000D01*
X12540000Y-10560000D02*
X12500000Y-10600000D01*
X12520000Y-11120000D02*
X12560000Y-11160000D01*
X12560000Y-11120000D02*
X12520000Y-11160000D01*
X12540000Y-10840000D02*
X12580000Y-10880000D01*
X12580000Y-10840000D02*
X12540000Y-10880000D01*
X12580000Y-10200000D02*
X12620000Y-10240000D01*
X12620000Y-10200000D02*
X12580000Y-10240000D01*
X12580000Y-10300000D02*
X12620000Y-10340000D01*
X12620000Y-10300000D02*
X12580000Y-10340000D01*
X12580000Y-10400000D02*
X12620000Y-10440000D01*
X12620000Y-10400000D02*
X12580000Y-10440000D01*
X12580000Y-10500000D02*
X12620000Y-10540000D01*
X12620000Y-10500000D02*
X12580000Y-10540000D01*
X12737500Y-8662500D02*
X12777500Y-8702500D01*
X12777500Y-8662500D02*
X12737500Y-8702500D01*
X12755000Y-9860000D02*
X12795000Y-9900000D01*
X12795000Y-9860000D02*
X12755000Y-9900000D01*
X12755000Y-9970000D02*
X12795000Y-10010000D01*
X12795000Y-9970000D02*
X12755000Y-10010000D01*
X12755000Y-10080000D02*
X12795000Y-10120000D01*
X12795000Y-10080000D02*
X12755000Y-10120000D01*
X12805000Y-9305000D02*
X12845000Y-9345000D01*
X12845000Y-9305000D02*
X12805000Y-9345000D01*
X12805000Y-9430000D02*
X12845000Y-9470000D01*
X12845000Y-9430000D02*
X12805000Y-9470000D01*
X13057500Y-9015000D02*
X13097500Y-9055000D01*
X13097500Y-9015000D02*
X13057500Y-9055000D01*
D13*
X11310000Y-9585680D02*
G75*
G03*
X11310000Y-9585680I-40000J0D01*
G01*
D11*
X11230000Y-9475680D02*
X11230000Y-9695680D01*
X11310000Y-9475680D02*
X11310000Y-9695680D01*
X11230000Y-9695680D02*
G75*
G03*
X11310000Y-9695680I40000J0D01*
G01*
X11310000Y-9475680D02*
G75*
G03*
X11230000Y-9475680I-40000J0D01*
G01*
D13*
X11790000Y-9305680D02*
G75*
G03*
X11790000Y-9305680I-40000J0D01*
G01*
D11*
X11860000Y-9265680D02*
X11640000Y-9265680D01*
X11860000Y-9345680D02*
X11640000Y-9345680D01*
X11640000Y-9265680D02*
G75*
G03*
X11640000Y-9345680I0J-40000D01*
G01*
X11860000Y-9345680D02*
G75*
G03*
X11860000Y-9265680I0J40000D01*
G01*
D13*
X11790000Y-9885680D02*
G75*
G03*
X11790000Y-9885680I-40000J0D01*
G01*
D11*
X11880000Y-9845680D02*
X11620000Y-9845680D01*
X11880000Y-9925680D02*
X11620000Y-9925680D01*
X11620000Y-9845680D02*
G75*
G03*
X11620000Y-9925680I0J-40000D01*
G01*
X11880000Y-9925680D02*
G75*
G03*
X11880000Y-9845680I0J40000D01*
G01*
D14*
X10500000Y-10930000D02*
X10500000Y-11070000D01*
X10430000Y-11000000D02*
X10570000Y-11000000D01*
X13000000Y-10930000D02*
X13000000Y-11070000D01*
X12930000Y-11000000D02*
X13070000Y-11000000D01*
D15*
X10298034Y-10798034D02*
X10298034Y-10691967D01*
X10191967Y-10691967D01*
X10191967Y-10798034D01*
X10298034Y-10798034D01*
X10298034Y-11308033D02*
X10298034Y-11201966D01*
X10191967Y-11201966D01*
X10191967Y-11308033D01*
X10298034Y-11308033D01*
X10808034Y-10798034D02*
X10808034Y-10691967D01*
X10701967Y-10691967D01*
X10701967Y-10798034D01*
X10808034Y-10798034D01*
X10808034Y-11308033D02*
X10808034Y-11201966D01*
X10701967Y-11201966D01*
X10701967Y-11308033D01*
X10808034Y-11308033D01*
X12798033Y-10798034D02*
X12798033Y-10691967D01*
X12691966Y-10691967D01*
X12691966Y-10798034D01*
X12798033Y-10798034D01*
X12798033Y-11308033D02*
X12798033Y-11201966D01*
X12691966Y-11201966D01*
X12691966Y-11308033D01*
X12798033Y-11308033D01*
X13308033Y-10798034D02*
X13308033Y-10691967D01*
X13201966Y-10691967D01*
X13201966Y-10798034D01*
X13308033Y-10798034D01*
X13308033Y-11308033D02*
X13308033Y-11201966D01*
X13201966Y-11201966D01*
X13201966Y-11308033D01*
X13308033Y-11308033D01*
D11*
X10247619Y-12320476D02*
X10247619Y-12120476D01*
X10295238Y-12120476D01*
X10323810Y-12130000D01*
X10342857Y-12149048D01*
X10352381Y-12168095D01*
X10361905Y-12206190D01*
X10361905Y-12234762D01*
X10352381Y-12272857D01*
X10342857Y-12291905D01*
X10323810Y-12310952D01*
X10295238Y-12320476D01*
X10247619Y-12320476D01*
X10447619Y-12320476D02*
X10447619Y-12187143D01*
X10447619Y-12225238D02*
X10457143Y-12206190D01*
X10466667Y-12196667D01*
X10485714Y-12187143D01*
X10504762Y-12187143D01*
X10571429Y-12320476D02*
X10571429Y-12187143D01*
X10571429Y-12120476D02*
X10561905Y-12130000D01*
X10571429Y-12139524D01*
X10580952Y-12130000D01*
X10571429Y-12120476D01*
X10571429Y-12139524D01*
X10695238Y-12320476D02*
X10676190Y-12310952D01*
X10666667Y-12291905D01*
X10666667Y-12120476D01*
X10800000Y-12320476D02*
X10780952Y-12310952D01*
X10771429Y-12291905D01*
X10771429Y-12120476D01*
X11028571Y-12320476D02*
X11028571Y-12120476D01*
X11095238Y-12263333D01*
X11161905Y-12120476D01*
X11161905Y-12320476D01*
X11342857Y-12320476D02*
X11342857Y-12215714D01*
X11333333Y-12196667D01*
X11314286Y-12187143D01*
X11276190Y-12187143D01*
X11257143Y-12196667D01*
X11342857Y-12310952D02*
X11323809Y-12320476D01*
X11276190Y-12320476D01*
X11257143Y-12310952D01*
X11247619Y-12291905D01*
X11247619Y-12272857D01*
X11257143Y-12253809D01*
X11276190Y-12244286D01*
X11323809Y-12244286D01*
X11342857Y-12234762D01*
X11438095Y-12187143D02*
X11438095Y-12387143D01*
X11438095Y-12196667D02*
X11457143Y-12187143D01*
X11495238Y-12187143D01*
X11514286Y-12196667D01*
X11523809Y-12206190D01*
X11533333Y-12225238D01*
X11533333Y-12282381D01*
X11523809Y-12301428D01*
X11514286Y-12310952D01*
X11495238Y-12320476D01*
X11457143Y-12320476D01*
X11438095Y-12310952D01*
X11619048Y-12301428D02*
X11628571Y-12310952D01*
X11619048Y-12320476D01*
X11609524Y-12310952D01*
X11619048Y-12301428D01*
X11619048Y-12320476D01*
X11619048Y-12196667D02*
X11628571Y-12206190D01*
X11619048Y-12215714D01*
X11609524Y-12206190D01*
X11619048Y-12196667D01*
X11619048Y-12215714D01*
D12*
X9950000Y-12630000D02*
X9990000Y-12670000D01*
X9990000Y-12630000D02*
X9950000Y-12670000D01*
D11*
X10285714Y-12540476D02*
X10304762Y-12540476D01*
X10323810Y-12550000D01*
X10333333Y-12559524D01*
X10342857Y-12578571D01*
X10352381Y-12616667D01*
X10352381Y-12664286D01*
X10342857Y-12702381D01*
X10333333Y-12721428D01*
X10323810Y-12730952D01*
X10304762Y-12740476D01*
X10285714Y-12740476D01*
X10266667Y-12730952D01*
X10257143Y-12721428D01*
X10247619Y-12702381D01*
X10238095Y-12664286D01*
X10238095Y-12616667D01*
X10247619Y-12578571D01*
X10257143Y-12559524D01*
X10266667Y-12550000D01*
X10285714Y-12540476D01*
X10438095Y-12721428D02*
X10447619Y-12730952D01*
X10438095Y-12740476D01*
X10428571Y-12730952D01*
X10438095Y-12721428D01*
X10438095Y-12740476D01*
X10619048Y-12607143D02*
X10619048Y-12740476D01*
X10571429Y-12530952D02*
X10523810Y-12673809D01*
X10647619Y-12673809D01*
X10761905Y-12540476D02*
X10780952Y-12540476D01*
X10800000Y-12550000D01*
X10809524Y-12559524D01*
X10819048Y-12578571D01*
X10828571Y-12616667D01*
X10828571Y-12664286D01*
X10819048Y-12702381D01*
X10809524Y-12721428D01*
X10800000Y-12730952D01*
X10780952Y-12740476D01*
X10761905Y-12740476D01*
X10742857Y-12730952D01*
X10733333Y-12721428D01*
X10723810Y-12702381D01*
X10714286Y-12664286D01*
X10714286Y-12616667D01*
X10723810Y-12578571D01*
X10733333Y-12559524D01*
X10742857Y-12550000D01*
X10761905Y-12540476D01*
X10952381Y-12540476D02*
X10971429Y-12540476D01*
X10990476Y-12550000D01*
X11000000Y-12559524D01*
X11009524Y-12578571D01*
X11019048Y-12616667D01*
X11019048Y-12664286D01*
X11009524Y-12702381D01*
X11000000Y-12721428D01*
X10990476Y-12730952D01*
X10971429Y-12740476D01*
X10952381Y-12740476D01*
X10933333Y-12730952D01*
X10923810Y-12721428D01*
X10914286Y-12702381D01*
X10904762Y-12664286D01*
X10904762Y-12616667D01*
X10914286Y-12578571D01*
X10923810Y-12559524D01*
X10933333Y-12550000D01*
X10952381Y-12540476D01*
X11104762Y-12740476D02*
X11104762Y-12607143D01*
X11104762Y-12626190D02*
X11114286Y-12616667D01*
X11133333Y-12607143D01*
X11161905Y-12607143D01*
X11180952Y-12616667D01*
X11190476Y-12635714D01*
X11190476Y-12740476D01*
X11190476Y-12635714D02*
X11200000Y-12616667D01*
X11219048Y-12607143D01*
X11247619Y-12607143D01*
X11266667Y-12616667D01*
X11276190Y-12635714D01*
X11276190Y-12740476D01*
X11371428Y-12740476D02*
X11371428Y-12607143D01*
X11371428Y-12626190D02*
X11380952Y-12616667D01*
X11400000Y-12607143D01*
X11428571Y-12607143D01*
X11447619Y-12616667D01*
X11457143Y-12635714D01*
X11457143Y-12740476D01*
X11457143Y-12635714D02*
X11466667Y-12616667D01*
X11485714Y-12607143D01*
X11514286Y-12607143D01*
X11533333Y-12616667D01*
X11542857Y-12635714D01*
X11542857Y-12740476D01*
X11933333Y-12530952D02*
X11761905Y-12788095D01*
X12190476Y-12540476D02*
X12209524Y-12540476D01*
X12228571Y-12550000D01*
X12238095Y-12559524D01*
X12247619Y-12578571D01*
X12257143Y-12616667D01*
X12257143Y-12664286D01*
X12247619Y-12702381D01*
X12238095Y-12721428D01*
X12228571Y-12730952D01*
X12209524Y-12740476D01*
X12190476Y-12740476D01*
X12171428Y-12730952D01*
X12161905Y-12721428D01*
X12152381Y-12702381D01*
X12142857Y-12664286D01*
X12142857Y-12616667D01*
X12152381Y-12578571D01*
X12161905Y-12559524D01*
X12171428Y-12550000D01*
X12190476Y-12540476D01*
X12342857Y-12721428D02*
X12352381Y-12730952D01*
X12342857Y-12740476D01*
X12333333Y-12730952D01*
X12342857Y-12721428D01*
X12342857Y-12740476D01*
X12476190Y-12540476D02*
X12495238Y-12540476D01*
X12514286Y-12550000D01*
X12523809Y-12559524D01*
X12533333Y-12578571D01*
X12542857Y-12616667D01*
X12542857Y-12664286D01*
X12533333Y-12702381D01*
X12523809Y-12721428D01*
X12514286Y-12730952D01*
X12495238Y-12740476D01*
X12476190Y-12740476D01*
X12457143Y-12730952D01*
X12447619Y-12721428D01*
X12438095Y-12702381D01*
X12428571Y-12664286D01*
X12428571Y-12616667D01*
X12438095Y-12578571D01*
X12447619Y-12559524D01*
X12457143Y-12550000D01*
X12476190Y-12540476D01*
X12733333Y-12740476D02*
X12619048Y-12740476D01*
X12676190Y-12740476D02*
X12676190Y-12540476D01*
X12657143Y-12569048D01*
X12638095Y-12588095D01*
X12619048Y-12597619D01*
X12914286Y-12540476D02*
X12819048Y-12540476D01*
X12809524Y-12635714D01*
X12819048Y-12626190D01*
X12838095Y-12616667D01*
X12885714Y-12616667D01*
X12904762Y-12626190D01*
X12914286Y-12635714D01*
X12923809Y-12654762D01*
X12923809Y-12702381D01*
X12914286Y-12721428D01*
X12904762Y-12730952D01*
X12885714Y-12740476D01*
X12838095Y-12740476D01*
X12819048Y-12730952D01*
X12809524Y-12721428D01*
X12990476Y-12540476D02*
X13123809Y-12540476D01*
X13038095Y-12740476D01*
X13190476Y-12540476D02*
X13190476Y-12578571D01*
X13266667Y-12540476D02*
X13266667Y-12578571D01*
X13561905Y-12816667D02*
X13552381Y-12807143D01*
X13533333Y-12778571D01*
X13523809Y-12759524D01*
X13514286Y-12730952D01*
X13504762Y-12683333D01*
X13504762Y-12645238D01*
X13514286Y-12597619D01*
X13523809Y-12569048D01*
X13533333Y-12550000D01*
X13552381Y-12521428D01*
X13561905Y-12511905D01*
X13723809Y-12540476D02*
X13685714Y-12540476D01*
X13666667Y-12550000D01*
X13657143Y-12559524D01*
X13638095Y-12588095D01*
X13628571Y-12626190D01*
X13628571Y-12702381D01*
X13638095Y-12721428D01*
X13647619Y-12730952D01*
X13666667Y-12740476D01*
X13704762Y-12740476D01*
X13723809Y-12730952D01*
X13733333Y-12721428D01*
X13742857Y-12702381D01*
X13742857Y-12654762D01*
X13733333Y-12635714D01*
X13723809Y-12626190D01*
X13704762Y-12616667D01*
X13666667Y-12616667D01*
X13647619Y-12626190D01*
X13638095Y-12635714D01*
X13628571Y-12654762D01*
X13923809Y-12540476D02*
X13828571Y-12540476D01*
X13819048Y-12635714D01*
X13828571Y-12626190D01*
X13847619Y-12616667D01*
X13895238Y-12616667D01*
X13914286Y-12626190D01*
X13923809Y-12635714D01*
X13933333Y-12654762D01*
X13933333Y-12702381D01*
X13923809Y-12721428D01*
X13914286Y-12730952D01*
X13895238Y-12740476D01*
X13847619Y-12740476D01*
X13828571Y-12730952D01*
X13819048Y-12721428D01*
X14171428Y-12740476D02*
X14171428Y-12540476D01*
X14257143Y-12740476D02*
X14257143Y-12635714D01*
X14247619Y-12616667D01*
X14228571Y-12607143D01*
X14200000Y-12607143D01*
X14180952Y-12616667D01*
X14171428Y-12626190D01*
X14380952Y-12740476D02*
X14361905Y-12730952D01*
X14352381Y-12721428D01*
X14342857Y-12702381D01*
X14342857Y-12645238D01*
X14352381Y-12626190D01*
X14361905Y-12616667D01*
X14380952Y-12607143D01*
X14409524Y-12607143D01*
X14428571Y-12616667D01*
X14438095Y-12626190D01*
X14447619Y-12645238D01*
X14447619Y-12702381D01*
X14438095Y-12721428D01*
X14428571Y-12730952D01*
X14409524Y-12740476D01*
X14380952Y-12740476D01*
X14561905Y-12740476D02*
X14542857Y-12730952D01*
X14533333Y-12711905D01*
X14533333Y-12540476D01*
X14714286Y-12730952D02*
X14695238Y-12740476D01*
X14657143Y-12740476D01*
X14638095Y-12730952D01*
X14628571Y-12711905D01*
X14628571Y-12635714D01*
X14638095Y-12616667D01*
X14657143Y-12607143D01*
X14695238Y-12607143D01*
X14714286Y-12616667D01*
X14723809Y-12635714D01*
X14723809Y-12654762D01*
X14628571Y-12673809D01*
X14800000Y-12730952D02*
X14819048Y-12740476D01*
X14857143Y-12740476D01*
X14876190Y-12730952D01*
X14885714Y-12711905D01*
X14885714Y-12702381D01*
X14876190Y-12683333D01*
X14857143Y-12673809D01*
X14828571Y-12673809D01*
X14809524Y-12664286D01*
X14800000Y-12645238D01*
X14800000Y-12635714D01*
X14809524Y-12616667D01*
X14828571Y-12607143D01*
X14857143Y-12607143D01*
X14876190Y-12616667D01*
X14952381Y-12816667D02*
X14961905Y-12807143D01*
X14980952Y-12778571D01*
X14990476Y-12759524D01*
X15000000Y-12730952D01*
X15009524Y-12683333D01*
X15009524Y-12645238D01*
X15000000Y-12597619D01*
X14990476Y-12569048D01*
X14980952Y-12550000D01*
X14961905Y-12521428D01*
X14952381Y-12511905D01*
D13*
X9990000Y-12914000D02*
G75*
G03*
X9990000Y-12914000I-40000J0D01*
G01*
D11*
X10285714Y-12804476D02*
X10304762Y-12804476D01*
X10323810Y-12814000D01*
X10333333Y-12823524D01*
X10342857Y-12842571D01*
X10352381Y-12880667D01*
X10352381Y-12928286D01*
X10342857Y-12966381D01*
X10333333Y-12985428D01*
X10323810Y-12994952D01*
X10304762Y-13004476D01*
X10285714Y-13004476D01*
X10266667Y-12994952D01*
X10257143Y-12985428D01*
X10247619Y-12966381D01*
X10238095Y-12928286D01*
X10238095Y-12880667D01*
X10247619Y-12842571D01*
X10257143Y-12823524D01*
X10266667Y-12814000D01*
X10285714Y-12804476D01*
X10438095Y-12985428D02*
X10447619Y-12994952D01*
X10438095Y-13004476D01*
X10428571Y-12994952D01*
X10438095Y-12985428D01*
X10438095Y-13004476D01*
X10561905Y-12890190D02*
X10542857Y-12880667D01*
X10533333Y-12871143D01*
X10523810Y-12852095D01*
X10523810Y-12842571D01*
X10533333Y-12823524D01*
X10542857Y-12814000D01*
X10561905Y-12804476D01*
X10600000Y-12804476D01*
X10619048Y-12814000D01*
X10628571Y-12823524D01*
X10638095Y-12842571D01*
X10638095Y-12852095D01*
X10628571Y-12871143D01*
X10619048Y-12880667D01*
X10600000Y-12890190D01*
X10561905Y-12890190D01*
X10542857Y-12899714D01*
X10533333Y-12909238D01*
X10523810Y-12928286D01*
X10523810Y-12966381D01*
X10533333Y-12985428D01*
X10542857Y-12994952D01*
X10561905Y-13004476D01*
X10600000Y-13004476D01*
X10619048Y-12994952D01*
X10628571Y-12985428D01*
X10638095Y-12966381D01*
X10638095Y-12928286D01*
X10628571Y-12909238D01*
X10619048Y-12899714D01*
X10600000Y-12890190D01*
X10761905Y-12804476D02*
X10780952Y-12804476D01*
X10800000Y-12814000D01*
X10809524Y-12823524D01*
X10819048Y-12842571D01*
X10828571Y-12880667D01*
X10828571Y-12928286D01*
X10819048Y-12966381D01*
X10809524Y-12985428D01*
X10800000Y-12994952D01*
X10780952Y-13004476D01*
X10761905Y-13004476D01*
X10742857Y-12994952D01*
X10733333Y-12985428D01*
X10723810Y-12966381D01*
X10714286Y-12928286D01*
X10714286Y-12880667D01*
X10723810Y-12842571D01*
X10733333Y-12823524D01*
X10742857Y-12814000D01*
X10761905Y-12804476D01*
X10952381Y-12804476D02*
X10971429Y-12804476D01*
X10990476Y-12814000D01*
X11000000Y-12823524D01*
X11009524Y-12842571D01*
X11019048Y-12880667D01*
X11019048Y-12928286D01*
X11009524Y-12966381D01*
X11000000Y-12985428D01*
X10990476Y-12994952D01*
X10971429Y-13004476D01*
X10952381Y-13004476D01*
X10933333Y-12994952D01*
X10923810Y-12985428D01*
X10914286Y-12966381D01*
X10904762Y-12928286D01*
X10904762Y-12880667D01*
X10914286Y-12842571D01*
X10923810Y-12823524D01*
X10933333Y-12814000D01*
X10952381Y-12804476D01*
X11104762Y-13004476D02*
X11104762Y-12871143D01*
X11104762Y-12890190D02*
X11114286Y-12880667D01*
X11133333Y-12871143D01*
X11161905Y-12871143D01*
X11180952Y-12880667D01*
X11190476Y-12899714D01*
X11190476Y-13004476D01*
X11190476Y-12899714D02*
X11200000Y-12880667D01*
X11219048Y-12871143D01*
X11247619Y-12871143D01*
X11266667Y-12880667D01*
X11276190Y-12899714D01*
X11276190Y-13004476D01*
X11371428Y-13004476D02*
X11371428Y-12871143D01*
X11371428Y-12890190D02*
X11380952Y-12880667D01*
X11400000Y-12871143D01*
X11428571Y-12871143D01*
X11447619Y-12880667D01*
X11457143Y-12899714D01*
X11457143Y-13004476D01*
X11457143Y-12899714D02*
X11466667Y-12880667D01*
X11485714Y-12871143D01*
X11514286Y-12871143D01*
X11533333Y-12880667D01*
X11542857Y-12899714D01*
X11542857Y-13004476D01*
X11933333Y-12794952D02*
X11761905Y-13052095D01*
X12190476Y-12804476D02*
X12209524Y-12804476D01*
X12228571Y-12814000D01*
X12238095Y-12823524D01*
X12247619Y-12842571D01*
X12257143Y-12880667D01*
X12257143Y-12928286D01*
X12247619Y-12966381D01*
X12238095Y-12985428D01*
X12228571Y-12994952D01*
X12209524Y-13004476D01*
X12190476Y-13004476D01*
X12171428Y-12994952D01*
X12161905Y-12985428D01*
X12152381Y-12966381D01*
X12142857Y-12928286D01*
X12142857Y-12880667D01*
X12152381Y-12842571D01*
X12161905Y-12823524D01*
X12171428Y-12814000D01*
X12190476Y-12804476D01*
X12342857Y-12985428D02*
X12352381Y-12994952D01*
X12342857Y-13004476D01*
X12333333Y-12994952D01*
X12342857Y-12985428D01*
X12342857Y-13004476D01*
X12476190Y-12804476D02*
X12495238Y-12804476D01*
X12514286Y-12814000D01*
X12523809Y-12823524D01*
X12533333Y-12842571D01*
X12542857Y-12880667D01*
X12542857Y-12928286D01*
X12533333Y-12966381D01*
X12523809Y-12985428D01*
X12514286Y-12994952D01*
X12495238Y-13004476D01*
X12476190Y-13004476D01*
X12457143Y-12994952D01*
X12447619Y-12985428D01*
X12438095Y-12966381D01*
X12428571Y-12928286D01*
X12428571Y-12880667D01*
X12438095Y-12842571D01*
X12447619Y-12823524D01*
X12457143Y-12814000D01*
X12476190Y-12804476D01*
X12609524Y-12804476D02*
X12733333Y-12804476D01*
X12666667Y-12880667D01*
X12695238Y-12880667D01*
X12714286Y-12890190D01*
X12723809Y-12899714D01*
X12733333Y-12918762D01*
X12733333Y-12966381D01*
X12723809Y-12985428D01*
X12714286Y-12994952D01*
X12695238Y-13004476D01*
X12638095Y-13004476D01*
X12619048Y-12994952D01*
X12609524Y-12985428D01*
X12923809Y-13004476D02*
X12809524Y-13004476D01*
X12866667Y-13004476D02*
X12866667Y-12804476D01*
X12847619Y-12833048D01*
X12828571Y-12852095D01*
X12809524Y-12861619D01*
X13104762Y-12804476D02*
X13009524Y-12804476D01*
X13000000Y-12899714D01*
X13009524Y-12890190D01*
X13028571Y-12880667D01*
X13076190Y-12880667D01*
X13095238Y-12890190D01*
X13104762Y-12899714D01*
X13114286Y-12918762D01*
X13114286Y-12966381D01*
X13104762Y-12985428D01*
X13095238Y-12994952D01*
X13076190Y-13004476D01*
X13028571Y-13004476D01*
X13009524Y-12994952D01*
X13000000Y-12985428D01*
X13190476Y-12804476D02*
X13190476Y-12842571D01*
X13266667Y-12804476D02*
X13266667Y-12842571D01*
X13561905Y-13080667D02*
X13552381Y-13071143D01*
X13533333Y-13042571D01*
X13523809Y-13023524D01*
X13514286Y-12994952D01*
X13504762Y-12947333D01*
X13504762Y-12909238D01*
X13514286Y-12861619D01*
X13523809Y-12833048D01*
X13533333Y-12814000D01*
X13552381Y-12785428D01*
X13561905Y-12775905D01*
X13676190Y-12804476D02*
X13695238Y-12804476D01*
X13714286Y-12814000D01*
X13723809Y-12823524D01*
X13733333Y-12842571D01*
X13742857Y-12880667D01*
X13742857Y-12928286D01*
X13733333Y-12966381D01*
X13723809Y-12985428D01*
X13714286Y-12994952D01*
X13695238Y-13004476D01*
X13676190Y-13004476D01*
X13657143Y-12994952D01*
X13647619Y-12985428D01*
X13638095Y-12966381D01*
X13628571Y-12928286D01*
X13628571Y-12880667D01*
X13638095Y-12842571D01*
X13647619Y-12823524D01*
X13657143Y-12814000D01*
X13676190Y-12804476D01*
X13980952Y-13004476D02*
X13980952Y-12804476D01*
X14066667Y-13004476D02*
X14066667Y-12899714D01*
X14057143Y-12880667D01*
X14038095Y-12871143D01*
X14009524Y-12871143D01*
X13990476Y-12880667D01*
X13980952Y-12890190D01*
X14190476Y-13004476D02*
X14171428Y-12994952D01*
X14161905Y-12985428D01*
X14152381Y-12966381D01*
X14152381Y-12909238D01*
X14161905Y-12890190D01*
X14171428Y-12880667D01*
X14190476Y-12871143D01*
X14219048Y-12871143D01*
X14238095Y-12880667D01*
X14247619Y-12890190D01*
X14257143Y-12909238D01*
X14257143Y-12966381D01*
X14247619Y-12985428D01*
X14238095Y-12994952D01*
X14219048Y-13004476D01*
X14190476Y-13004476D01*
X14371428Y-13004476D02*
X14352381Y-12994952D01*
X14342857Y-12975905D01*
X14342857Y-12804476D01*
X14523809Y-12994952D02*
X14504762Y-13004476D01*
X14466667Y-13004476D01*
X14447619Y-12994952D01*
X14438095Y-12975905D01*
X14438095Y-12899714D01*
X14447619Y-12880667D01*
X14466667Y-12871143D01*
X14504762Y-12871143D01*
X14523809Y-12880667D01*
X14533333Y-12899714D01*
X14533333Y-12918762D01*
X14438095Y-12937809D01*
X14609524Y-12994952D02*
X14628571Y-13004476D01*
X14666667Y-13004476D01*
X14685714Y-12994952D01*
X14695238Y-12975905D01*
X14695238Y-12966381D01*
X14685714Y-12947333D01*
X14666667Y-12937809D01*
X14638095Y-12937809D01*
X14619048Y-12928286D01*
X14609524Y-12909238D01*
X14609524Y-12899714D01*
X14619048Y-12880667D01*
X14638095Y-12871143D01*
X14666667Y-12871143D01*
X14685714Y-12880667D01*
X14933333Y-12928286D02*
X15085714Y-12928286D01*
X15009524Y-13004476D02*
X15009524Y-12852095D01*
X15314286Y-12804476D02*
X15438095Y-12804476D01*
X15371428Y-12880667D01*
X15400000Y-12880667D01*
X15419048Y-12890190D01*
X15428571Y-12899714D01*
X15438095Y-12918762D01*
X15438095Y-12966381D01*
X15428571Y-12985428D01*
X15419048Y-12994952D01*
X15400000Y-13004476D01*
X15342857Y-13004476D01*
X15323809Y-12994952D01*
X15314286Y-12985428D01*
X15666667Y-12994952D02*
X15685714Y-13004476D01*
X15723809Y-13004476D01*
X15742857Y-12994952D01*
X15752381Y-12975905D01*
X15752381Y-12966381D01*
X15742857Y-12947333D01*
X15723809Y-12937809D01*
X15695238Y-12937809D01*
X15676190Y-12928286D01*
X15666667Y-12909238D01*
X15666667Y-12899714D01*
X15676190Y-12880667D01*
X15695238Y-12871143D01*
X15723809Y-12871143D01*
X15742857Y-12880667D01*
X15866667Y-13004476D02*
X15847619Y-12994952D01*
X15838095Y-12975905D01*
X15838095Y-12804476D01*
X15971428Y-13004476D02*
X15952381Y-12994952D01*
X15942857Y-12985428D01*
X15933333Y-12966381D01*
X15933333Y-12909238D01*
X15942857Y-12890190D01*
X15952381Y-12880667D01*
X15971428Y-12871143D01*
X16000000Y-12871143D01*
X16019048Y-12880667D01*
X16028571Y-12890190D01*
X16038095Y-12909238D01*
X16038095Y-12966381D01*
X16028571Y-12985428D01*
X16019048Y-12994952D01*
X16000000Y-13004476D01*
X15971428Y-13004476D01*
X16095238Y-12871143D02*
X16171428Y-12871143D01*
X16123809Y-12804476D02*
X16123809Y-12975905D01*
X16133333Y-12994952D01*
X16152381Y-13004476D01*
X16171428Y-13004476D01*
X16228571Y-12994952D02*
X16247619Y-13004476D01*
X16285714Y-13004476D01*
X16304762Y-12994952D01*
X16314286Y-12975905D01*
X16314286Y-12966381D01*
X16304762Y-12947333D01*
X16285714Y-12937809D01*
X16257143Y-12937809D01*
X16238095Y-12928286D01*
X16228571Y-12909238D01*
X16228571Y-12899714D01*
X16238095Y-12880667D01*
X16257143Y-12871143D01*
X16285714Y-12871143D01*
X16304762Y-12880667D01*
X16380952Y-13080667D02*
X16390476Y-13071143D01*
X16409524Y-13042571D01*
X16419048Y-13023524D01*
X16428571Y-12994952D01*
X16438095Y-12947333D01*
X16438095Y-12909238D01*
X16428571Y-12861619D01*
X16419048Y-12833048D01*
X16409524Y-12814000D01*
X16390476Y-12785428D01*
X16380952Y-12775905D01*
D14*
X9920000Y-13108000D02*
X9920000Y-13248000D01*
X9850000Y-13178000D02*
X9990000Y-13178000D01*
D11*
X10352381Y-13268476D02*
X10238095Y-13268476D01*
X10295238Y-13268476D02*
X10295238Y-13068476D01*
X10276190Y-13097048D01*
X10257143Y-13116095D01*
X10238095Y-13125619D01*
X10438095Y-13249428D02*
X10447619Y-13258952D01*
X10438095Y-13268476D01*
X10428571Y-13258952D01*
X10438095Y-13249428D01*
X10438095Y-13268476D01*
X10619048Y-13135143D02*
X10619048Y-13268476D01*
X10571429Y-13058952D02*
X10523810Y-13201809D01*
X10647619Y-13201809D01*
X10761905Y-13068476D02*
X10780952Y-13068476D01*
X10800000Y-13078000D01*
X10809524Y-13087524D01*
X10819048Y-13106571D01*
X10828571Y-13144667D01*
X10828571Y-13192286D01*
X10819048Y-13230381D01*
X10809524Y-13249428D01*
X10800000Y-13258952D01*
X10780952Y-13268476D01*
X10761905Y-13268476D01*
X10742857Y-13258952D01*
X10733333Y-13249428D01*
X10723810Y-13230381D01*
X10714286Y-13192286D01*
X10714286Y-13144667D01*
X10723810Y-13106571D01*
X10733333Y-13087524D01*
X10742857Y-13078000D01*
X10761905Y-13068476D01*
X10952381Y-13068476D02*
X10971429Y-13068476D01*
X10990476Y-13078000D01*
X11000000Y-13087524D01*
X11009524Y-13106571D01*
X11019048Y-13144667D01*
X11019048Y-13192286D01*
X11009524Y-13230381D01*
X11000000Y-13249428D01*
X10990476Y-13258952D01*
X10971429Y-13268476D01*
X10952381Y-13268476D01*
X10933333Y-13258952D01*
X10923810Y-13249428D01*
X10914286Y-13230381D01*
X10904762Y-13192286D01*
X10904762Y-13144667D01*
X10914286Y-13106571D01*
X10923810Y-13087524D01*
X10933333Y-13078000D01*
X10952381Y-13068476D01*
X11104762Y-13268476D02*
X11104762Y-13135143D01*
X11104762Y-13154190D02*
X11114286Y-13144667D01*
X11133333Y-13135143D01*
X11161905Y-13135143D01*
X11180952Y-13144667D01*
X11190476Y-13163714D01*
X11190476Y-13268476D01*
X11190476Y-13163714D02*
X11200000Y-13144667D01*
X11219048Y-13135143D01*
X11247619Y-13135143D01*
X11266667Y-13144667D01*
X11276190Y-13163714D01*
X11276190Y-13268476D01*
X11371428Y-13268476D02*
X11371428Y-13135143D01*
X11371428Y-13154190D02*
X11380952Y-13144667D01*
X11400000Y-13135143D01*
X11428571Y-13135143D01*
X11447619Y-13144667D01*
X11457143Y-13163714D01*
X11457143Y-13268476D01*
X11457143Y-13163714D02*
X11466667Y-13144667D01*
X11485714Y-13135143D01*
X11514286Y-13135143D01*
X11533333Y-13144667D01*
X11542857Y-13163714D01*
X11542857Y-13268476D01*
X11933333Y-13058952D02*
X11761905Y-13316095D01*
X12190476Y-13068476D02*
X12209524Y-13068476D01*
X12228571Y-13078000D01*
X12238095Y-13087524D01*
X12247619Y-13106571D01*
X12257143Y-13144667D01*
X12257143Y-13192286D01*
X12247619Y-13230381D01*
X12238095Y-13249428D01*
X12228571Y-13258952D01*
X12209524Y-13268476D01*
X12190476Y-13268476D01*
X12171428Y-13258952D01*
X12161905Y-13249428D01*
X12152381Y-13230381D01*
X12142857Y-13192286D01*
X12142857Y-13144667D01*
X12152381Y-13106571D01*
X12161905Y-13087524D01*
X12171428Y-13078000D01*
X12190476Y-13068476D01*
X12342857Y-13249428D02*
X12352381Y-13258952D01*
X12342857Y-13268476D01*
X12333333Y-13258952D01*
X12342857Y-13249428D01*
X12342857Y-13268476D01*
X12476190Y-13068476D02*
X12495238Y-13068476D01*
X12514286Y-13078000D01*
X12523809Y-13087524D01*
X12533333Y-13106571D01*
X12542857Y-13144667D01*
X12542857Y-13192286D01*
X12533333Y-13230381D01*
X12523809Y-13249428D01*
X12514286Y-13258952D01*
X12495238Y-13268476D01*
X12476190Y-13268476D01*
X12457143Y-13258952D01*
X12447619Y-13249428D01*
X12438095Y-13230381D01*
X12428571Y-13192286D01*
X12428571Y-13144667D01*
X12438095Y-13106571D01*
X12447619Y-13087524D01*
X12457143Y-13078000D01*
X12476190Y-13068476D01*
X12723809Y-13068476D02*
X12628571Y-13068476D01*
X12619048Y-13163714D01*
X12628571Y-13154190D01*
X12647619Y-13144667D01*
X12695238Y-13144667D01*
X12714286Y-13154190D01*
X12723809Y-13163714D01*
X12733333Y-13182762D01*
X12733333Y-13230381D01*
X12723809Y-13249428D01*
X12714286Y-13258952D01*
X12695238Y-13268476D01*
X12647619Y-13268476D01*
X12628571Y-13258952D01*
X12619048Y-13249428D01*
X12914286Y-13068476D02*
X12819048Y-13068476D01*
X12809524Y-13163714D01*
X12819048Y-13154190D01*
X12838095Y-13144667D01*
X12885714Y-13144667D01*
X12904762Y-13154190D01*
X12914286Y-13163714D01*
X12923809Y-13182762D01*
X12923809Y-13230381D01*
X12914286Y-13249428D01*
X12904762Y-13258952D01*
X12885714Y-13268476D01*
X12838095Y-13268476D01*
X12819048Y-13258952D01*
X12809524Y-13249428D01*
X13114286Y-13268476D02*
X13000000Y-13268476D01*
X13057143Y-13268476D02*
X13057143Y-13068476D01*
X13038095Y-13097048D01*
X13019048Y-13116095D01*
X13000000Y-13125619D01*
X13190476Y-13068476D02*
X13190476Y-13106571D01*
X13266667Y-13068476D02*
X13266667Y-13106571D01*
X13561905Y-13344667D02*
X13552381Y-13335143D01*
X13533333Y-13306571D01*
X13523809Y-13287524D01*
X13514286Y-13258952D01*
X13504762Y-13211333D01*
X13504762Y-13173238D01*
X13514286Y-13125619D01*
X13523809Y-13097048D01*
X13533333Y-13078000D01*
X13552381Y-13049428D01*
X13561905Y-13039905D01*
X13628571Y-13087524D02*
X13638095Y-13078000D01*
X13657143Y-13068476D01*
X13704762Y-13068476D01*
X13723809Y-13078000D01*
X13733333Y-13087524D01*
X13742857Y-13106571D01*
X13742857Y-13125619D01*
X13733333Y-13154190D01*
X13619048Y-13268476D01*
X13742857Y-13268476D01*
X13980952Y-13268476D02*
X13980952Y-13068476D01*
X14066667Y-13268476D02*
X14066667Y-13163714D01*
X14057143Y-13144667D01*
X14038095Y-13135143D01*
X14009524Y-13135143D01*
X13990476Y-13144667D01*
X13980952Y-13154190D01*
X14190476Y-13268476D02*
X14171428Y-13258952D01*
X14161905Y-13249428D01*
X14152381Y-13230381D01*
X14152381Y-13173238D01*
X14161905Y-13154190D01*
X14171428Y-13144667D01*
X14190476Y-13135143D01*
X14219048Y-13135143D01*
X14238095Y-13144667D01*
X14247619Y-13154190D01*
X14257143Y-13173238D01*
X14257143Y-13230381D01*
X14247619Y-13249428D01*
X14238095Y-13258952D01*
X14219048Y-13268476D01*
X14190476Y-13268476D01*
X14371428Y-13268476D02*
X14352381Y-13258952D01*
X14342857Y-13239905D01*
X14342857Y-13068476D01*
X14523809Y-13258952D02*
X14504762Y-13268476D01*
X14466667Y-13268476D01*
X14447619Y-13258952D01*
X14438095Y-13239905D01*
X14438095Y-13163714D01*
X14447619Y-13144667D01*
X14466667Y-13135143D01*
X14504762Y-13135143D01*
X14523809Y-13144667D01*
X14533333Y-13163714D01*
X14533333Y-13182762D01*
X14438095Y-13201809D01*
X14609524Y-13258952D02*
X14628571Y-13268476D01*
X14666667Y-13268476D01*
X14685714Y-13258952D01*
X14695238Y-13239905D01*
X14695238Y-13230381D01*
X14685714Y-13211333D01*
X14666667Y-13201809D01*
X14638095Y-13201809D01*
X14619048Y-13192286D01*
X14609524Y-13173238D01*
X14609524Y-13163714D01*
X14619048Y-13144667D01*
X14638095Y-13135143D01*
X14666667Y-13135143D01*
X14685714Y-13144667D01*
X14761905Y-13344667D02*
X14771428Y-13335143D01*
X14790476Y-13306571D01*
X14800000Y-13287524D01*
X14809524Y-13258952D01*
X14819048Y-13211333D01*
X14819048Y-13173238D01*
X14809524Y-13125619D01*
X14800000Y-13097048D01*
X14790476Y-13078000D01*
X14771428Y-13049428D01*
X14761905Y-13039905D01*
D15*
X9968034Y-13495033D02*
X9968034Y-13388966D01*
X9861967Y-13388966D01*
X9861967Y-13495033D01*
X9968034Y-13495033D01*
D11*
X10352381Y-13532476D02*
X10238095Y-13532476D01*
X10295238Y-13532476D02*
X10295238Y-13332476D01*
X10276190Y-13361048D01*
X10257143Y-13380095D01*
X10238095Y-13389619D01*
X10438095Y-13513428D02*
X10447619Y-13522952D01*
X10438095Y-13532476D01*
X10428571Y-13522952D01*
X10438095Y-13513428D01*
X10438095Y-13532476D01*
X10628571Y-13332476D02*
X10533333Y-13332476D01*
X10523810Y-13427714D01*
X10533333Y-13418190D01*
X10552381Y-13408667D01*
X10600000Y-13408667D01*
X10619048Y-13418190D01*
X10628571Y-13427714D01*
X10638095Y-13446762D01*
X10638095Y-13494381D01*
X10628571Y-13513428D01*
X10619048Y-13522952D01*
X10600000Y-13532476D01*
X10552381Y-13532476D01*
X10533333Y-13522952D01*
X10523810Y-13513428D01*
X10761905Y-13332476D02*
X10780952Y-13332476D01*
X10800000Y-13342000D01*
X10809524Y-13351524D01*
X10819048Y-13370571D01*
X10828571Y-13408667D01*
X10828571Y-13456286D01*
X10819048Y-13494381D01*
X10809524Y-13513428D01*
X10800000Y-13522952D01*
X10780952Y-13532476D01*
X10761905Y-13532476D01*
X10742857Y-13522952D01*
X10733333Y-13513428D01*
X10723810Y-13494381D01*
X10714286Y-13456286D01*
X10714286Y-13408667D01*
X10723810Y-13370571D01*
X10733333Y-13351524D01*
X10742857Y-13342000D01*
X10761905Y-13332476D01*
X10952381Y-13332476D02*
X10971429Y-13332476D01*
X10990476Y-13342000D01*
X11000000Y-13351524D01*
X11009524Y-13370571D01*
X11019048Y-13408667D01*
X11019048Y-13456286D01*
X11009524Y-13494381D01*
X11000000Y-13513428D01*
X10990476Y-13522952D01*
X10971429Y-13532476D01*
X10952381Y-13532476D01*
X10933333Y-13522952D01*
X10923810Y-13513428D01*
X10914286Y-13494381D01*
X10904762Y-13456286D01*
X10904762Y-13408667D01*
X10914286Y-13370571D01*
X10923810Y-13351524D01*
X10933333Y-13342000D01*
X10952381Y-13332476D01*
X11104762Y-13532476D02*
X11104762Y-13399143D01*
X11104762Y-13418190D02*
X11114286Y-13408667D01*
X11133333Y-13399143D01*
X11161905Y-13399143D01*
X11180952Y-13408667D01*
X11190476Y-13427714D01*
X11190476Y-13532476D01*
X11190476Y-13427714D02*
X11200000Y-13408667D01*
X11219048Y-13399143D01*
X11247619Y-13399143D01*
X11266667Y-13408667D01*
X11276190Y-13427714D01*
X11276190Y-13532476D01*
X11371428Y-13532476D02*
X11371428Y-13399143D01*
X11371428Y-13418190D02*
X11380952Y-13408667D01*
X11400000Y-13399143D01*
X11428571Y-13399143D01*
X11447619Y-13408667D01*
X11457143Y-13427714D01*
X11457143Y-13532476D01*
X11457143Y-13427714D02*
X11466667Y-13408667D01*
X11485714Y-13399143D01*
X11514286Y-13399143D01*
X11533333Y-13408667D01*
X11542857Y-13427714D01*
X11542857Y-13532476D01*
X11933333Y-13322952D02*
X11761905Y-13580095D01*
X12190476Y-13332476D02*
X12209524Y-13332476D01*
X12228571Y-13342000D01*
X12238095Y-13351524D01*
X12247619Y-13370571D01*
X12257143Y-13408667D01*
X12257143Y-13456286D01*
X12247619Y-13494381D01*
X12238095Y-13513428D01*
X12228571Y-13522952D01*
X12209524Y-13532476D01*
X12190476Y-13532476D01*
X12171428Y-13522952D01*
X12161905Y-13513428D01*
X12152381Y-13494381D01*
X12142857Y-13456286D01*
X12142857Y-13408667D01*
X12152381Y-13370571D01*
X12161905Y-13351524D01*
X12171428Y-13342000D01*
X12190476Y-13332476D01*
X12342857Y-13513428D02*
X12352381Y-13522952D01*
X12342857Y-13532476D01*
X12333333Y-13522952D01*
X12342857Y-13513428D01*
X12342857Y-13532476D01*
X12476190Y-13332476D02*
X12495238Y-13332476D01*
X12514286Y-13342000D01*
X12523809Y-13351524D01*
X12533333Y-13370571D01*
X12542857Y-13408667D01*
X12542857Y-13456286D01*
X12533333Y-13494381D01*
X12523809Y-13513428D01*
X12514286Y-13522952D01*
X12495238Y-13532476D01*
X12476190Y-13532476D01*
X12457143Y-13522952D01*
X12447619Y-13513428D01*
X12438095Y-13494381D01*
X12428571Y-13456286D01*
X12428571Y-13408667D01*
X12438095Y-13370571D01*
X12447619Y-13351524D01*
X12457143Y-13342000D01*
X12476190Y-13332476D01*
X12723809Y-13332476D02*
X12628571Y-13332476D01*
X12619048Y-13427714D01*
X12628571Y-13418190D01*
X12647619Y-13408667D01*
X12695238Y-13408667D01*
X12714286Y-13418190D01*
X12723809Y-13427714D01*
X12733333Y-13446762D01*
X12733333Y-13494381D01*
X12723809Y-13513428D01*
X12714286Y-13522952D01*
X12695238Y-13532476D01*
X12647619Y-13532476D01*
X12628571Y-13522952D01*
X12619048Y-13513428D01*
X12828571Y-13532476D02*
X12866667Y-13532476D01*
X12885714Y-13522952D01*
X12895238Y-13513428D01*
X12914286Y-13484857D01*
X12923809Y-13446762D01*
X12923809Y-13370571D01*
X12914286Y-13351524D01*
X12904762Y-13342000D01*
X12885714Y-13332476D01*
X12847619Y-13332476D01*
X12828571Y-13342000D01*
X12819048Y-13351524D01*
X12809524Y-13370571D01*
X12809524Y-13418190D01*
X12819048Y-13437238D01*
X12828571Y-13446762D01*
X12847619Y-13456286D01*
X12885714Y-13456286D01*
X12904762Y-13446762D01*
X12914286Y-13437238D01*
X12923809Y-13418190D01*
X13114286Y-13532476D02*
X13000000Y-13532476D01*
X13057143Y-13532476D02*
X13057143Y-13332476D01*
X13038095Y-13361048D01*
X13019048Y-13380095D01*
X13000000Y-13389619D01*
X13190476Y-13332476D02*
X13190476Y-13370571D01*
X13266667Y-13332476D02*
X13266667Y-13370571D01*
X13561905Y-13608667D02*
X13552381Y-13599143D01*
X13533333Y-13570571D01*
X13523809Y-13551524D01*
X13514286Y-13522952D01*
X13504762Y-13475333D01*
X13504762Y-13437238D01*
X13514286Y-13389619D01*
X13523809Y-13361048D01*
X13533333Y-13342000D01*
X13552381Y-13313428D01*
X13561905Y-13303905D01*
X13666667Y-13418190D02*
X13647619Y-13408667D01*
X13638095Y-13399143D01*
X13628571Y-13380095D01*
X13628571Y-13370571D01*
X13638095Y-13351524D01*
X13647619Y-13342000D01*
X13666667Y-13332476D01*
X13704762Y-13332476D01*
X13723809Y-13342000D01*
X13733333Y-13351524D01*
X13742857Y-13370571D01*
X13742857Y-13380095D01*
X13733333Y-13399143D01*
X13723809Y-13408667D01*
X13704762Y-13418190D01*
X13666667Y-13418190D01*
X13647619Y-13427714D01*
X13638095Y-13437238D01*
X13628571Y-13456286D01*
X13628571Y-13494381D01*
X13638095Y-13513428D01*
X13647619Y-13522952D01*
X13666667Y-13532476D01*
X13704762Y-13532476D01*
X13723809Y-13522952D01*
X13733333Y-13513428D01*
X13742857Y-13494381D01*
X13742857Y-13456286D01*
X13733333Y-13437238D01*
X13723809Y-13427714D01*
X13704762Y-13418190D01*
X13980952Y-13532476D02*
X13980952Y-13332476D01*
X14066667Y-13532476D02*
X14066667Y-13427714D01*
X14057143Y-13408667D01*
X14038095Y-13399143D01*
X14009524Y-13399143D01*
X13990476Y-13408667D01*
X13980952Y-13418190D01*
X14190476Y-13532476D02*
X14171428Y-13522952D01*
X14161905Y-13513428D01*
X14152381Y-13494381D01*
X14152381Y-13437238D01*
X14161905Y-13418190D01*
X14171428Y-13408667D01*
X14190476Y-13399143D01*
X14219048Y-13399143D01*
X14238095Y-13408667D01*
X14247619Y-13418190D01*
X14257143Y-13437238D01*
X14257143Y-13494381D01*
X14247619Y-13513428D01*
X14238095Y-13522952D01*
X14219048Y-13532476D01*
X14190476Y-13532476D01*
X14371428Y-13532476D02*
X14352381Y-13522952D01*
X14342857Y-13503905D01*
X14342857Y-13332476D01*
X14523809Y-13522952D02*
X14504762Y-13532476D01*
X14466667Y-13532476D01*
X14447619Y-13522952D01*
X14438095Y-13503905D01*
X14438095Y-13427714D01*
X14447619Y-13408667D01*
X14466667Y-13399143D01*
X14504762Y-13399143D01*
X14523809Y-13408667D01*
X14533333Y-13427714D01*
X14533333Y-13446762D01*
X14438095Y-13465809D01*
X14609524Y-13522952D02*
X14628571Y-13532476D01*
X14666667Y-13532476D01*
X14685714Y-13522952D01*
X14695238Y-13503905D01*
X14695238Y-13494381D01*
X14685714Y-13475333D01*
X14666667Y-13465809D01*
X14638095Y-13465809D01*
X14619048Y-13456286D01*
X14609524Y-13437238D01*
X14609524Y-13427714D01*
X14619048Y-13408667D01*
X14638095Y-13399143D01*
X14666667Y-13399143D01*
X14685714Y-13408667D01*
X14761905Y-13608667D02*
X14771428Y-13599143D01*
X14790476Y-13570571D01*
X14800000Y-13551524D01*
X14809524Y-13522952D01*
X14819048Y-13475333D01*
X14819048Y-13437238D01*
X14809524Y-13389619D01*
X14800000Y-13361048D01*
X14790476Y-13342000D01*
X14771428Y-13313428D01*
X14761905Y-13303905D01*
M02*
