M48
; DRILL file {KiCad (6.0.6-0)} date 2023 January 17, Tuesday 17:25:36
; FORMAT={-:-/ absolute / metric / decimal}
; #@! TF.CreationDate,2023-01-17T17:25:36+00:00
; #@! TF.GenerationSoftware,Kicad,Pcbnew,(6.0.6-0)
; #@! TF.FileFunction,Plated,1,2,PTH
FMAT,2
METRIC
; #@! TA.AperFunction,Plated,PTH,ViaDrill
T1C0.400
; #@! TA.AperFunction,Plated,PTH,ComponentDrill
T2C0.800
; #@! TA.AperFunction,Plated,PTH,ComponentDrill
T3C1.400
; #@! TA.AperFunction,Plated,PTH,ComponentDrill
T4C1.500
%
G90
G05
T1
X109.4Y-108.6
X109.4Y-111.4
X110.4Y-108.6
X110.4Y-111.4
X110.75Y-93.75
X110.75Y-95.0
X110.75Y-96.25
X110.75Y-97.5
X111.4Y-108.6
X111.4Y-111.4
X112.4Y-108.6
X112.4Y-111.4
X113.4Y-108.6
X113.4Y-111.4
X114.4Y-108.6
X114.4Y-111.4
X115.4Y-111.4
X115.75Y-91.0
X116.0Y-105.2
X116.0Y-106.2
X116.0Y-107.4
X116.0Y-108.4
X116.4Y-111.4
X117.0Y-105.2
X117.4Y-111.4
X117.5Y-91.0
X118.0Y-105.2
X118.4Y-111.4
X119.0Y-105.2
X119.0Y-106.2
X119.0Y-107.4
X119.0Y-108.4
X119.25Y-91.0
X119.4Y-111.4
X120.0Y-108.4
X120.4Y-111.4
X121.025Y-107.05
X121.2Y-99.6
X121.2Y-101.15
X121.2Y-102.825
X121.4Y-111.4
X122.4Y-111.4
X122.6Y-108.6
X123.325Y-107.125
X123.4Y-111.4
X123.6Y-108.6
X123.75Y-96.5
X124.0Y-106.0
X124.4Y-111.4
X124.6Y-108.6
X124.825Y-94.8
X125.2Y-105.8
X125.4Y-111.4
X125.6Y-108.6
X126.0Y-102.2
X126.0Y-103.2
X126.0Y-104.2
X126.0Y-105.2
X127.575Y-86.825
X127.75Y-98.8
X127.75Y-99.9
X127.75Y-101.0
X128.25Y-93.25
X128.25Y-94.5
X130.775Y-90.35
T3
X105.0Y-110.0
X130.0Y-110.0
T4
X102.45Y-107.45
X102.45Y-112.55
X107.55Y-107.45
X107.55Y-112.55
X127.45Y-107.45
X127.45Y-112.55
X132.55Y-107.45
X132.55Y-112.55
T2
X112.7Y-94.757G85X112.7Y-96.957
G05
X118.6Y-93.057G85X116.4Y-93.057
G05
X118.8Y-98.857G85X116.2Y-98.857
G05
T0
M30
